<?xml version="1.0" encoding="utf-8"?>
<!-- Generator: Adobe Illustrator 22.1.0, SVG Export Plug-In . SVG Version: 6.00 Build 0)  -->
<svg version="1.1" id="Слой_1" xmlns="http://www.w3.org/2000/svg" xmlns:xlink="http://www.w3.org/1999/xlink" x="0px" y="0px"
	 viewBox="0 0 1200 720" style="enable-background:new 0 0 1200 720;" xml:space="preserve">
<style type="text/css">
	.st0{fill:#02507E;}
	.st1{fill:#024977;}
	.st2{fill:#014C7B;}
	.st3{fill:#084475;}
	.st4{fill:#811846;}
	.st5{fill:#671F54;}
	.st6{fill:#E56A8B;}
	.st7{fill:#D24D51;}
	.st8{fill:#E8AC7A;}
	.st9{fill:#FDDFBF;}
	.st10{fill:#BF2154;}
	.st11{fill:#D66D72;}
	.st12{fill:#9C1D49;}
	.st13{fill:#F8B1A7;}
	.st14{fill:#FDD2A5;}
	.st15{fill:#FDDDC6;}
	.st16{fill:#F8AC9D;}
	.st17{fill:#F9D6A8;}
	.st18{fill:#E0826D;}
	.st19{fill:#DA6666;}
	.st20{fill:#BF3740;}
	.st21{fill:#6D103F;}
	.st22{fill:#F7A896;}
	.st23{fill:#F16B6E;}
	.st24{fill:#C52236;}
	.st25{fill:#20262D;}
	.st26{fill:#D2D6D8;}
	.st27{fill:#B8D3E1;}
	.st28{fill:#547B92;}
	.st29{fill:#FFFFFF;}
	.st30{fill:#DDF0F3;}
	.st31{fill:#241F21;}
	.st32{fill:#F0F2F2;}
	.st33{fill:#93A6B7;}
	.st34{fill:#181A1E;}
	.st35{fill:#313036;}
	.st36{fill:#404042;}
	.st37{fill:#919496;}
	.st38{fill:#B6DBDE;}
	.st39{fill:#CCD1D4;}
	.st40{fill:#E5E7E9;}
	.st41{fill:#2C698F;}
	.st42{fill:#ADB2B7;}
	.st43{fill:#DDE6EC;}
	.st44{fill:#DAECEC;}
</style>
<g>
	<polygon class="st0" points="475.6,0 248,720 0,720 0,0 	"/>
	<polygon class="st1" points="1200,719.9 1200,437.7 475.6,0 248,720 	"/>
	<polygon class="st2" points="475.6,0 1200,143.7 1200,437.7 	"/>
	<polygon class="st3" points="1200,143.7 1200,0 475.6,0 	"/>
	<g>
		<g>
			<g>
				<polygon class="st4" points="830.5,0.7 843.9,77.7 858.9,77.7 858.9,39.2 				"/>
				<polygon class="st5" points="868.5,0.7 858.9,39.2 830.5,0.7 				"/>
				<polygon class="st6" points="858.9,39.2 901.2,51.3 883.5,89 927.5,55.7 946.5,27.3 868.5,0.7 				"/>
				<polygon class="st7" points="946.5,27.3 925.9,0.7 868.5,0.7 				"/>
				<polygon class="st8" points="946.5,27.3 939.2,0.7 925.9,0.7 				"/>
				<polygon class="st9" points="939.2,0.7 981.5,0.7 986.9,33.3 986.9,70.3 946.5,27.3 				"/>
				<polygon class="st8" points="986.9,70.3 927.5,55.7 946.5,27.3 				"/>
				<polygon class="st5" points="839.2,103.7 843.9,77.7 858.9,77.7 858.9,39.2 901.2,51.3 861.9,77.7 855.9,95 				"/>
				<polygon class="st10" points="855.9,95 883.5,89 901.2,51.3 861.9,77.7 				"/>
				<polygon class="st11" points="883.5,89 898.5,110 944.8,59.9 927.5,55.7 				"/>
				<polygon class="st12" points="839.2,103.7 796.9,141.7 740.9,242.3 768.5,234.3 898.5,110 883.5,89 855.9,95 				"/>
				<polygon class="st13" points="944.8,59.9 960.8,63.9 931.2,133 806.5,265 768.5,234.3 898.5,110 				"/>
				<polygon class="st14" points="986.9,70.3 983.9,99 911.2,340 893.9,326 931.2,133 960.8,63.9 				"/>
				<polygon class="st15" points="931.2,133 893.9,326 896.9,344.3 819.7,283.3 827.9,242.3 				"/>
				<polygon class="st16" points="896.9,344.3 909.9,354.3 911.2,340 893.9,326 				"/>
				<polygon class="st17" points="819.7,283.3 795.9,294.7 780.2,292.7 836.5,330 880.2,331.1 				"/>
				<polygon class="st18" points="827.9,242.3 819.7,283.3 795.9,294.7 780.2,292.7 				"/>
				<polygon class="st19" points="768.5,234.3 795.1,255.7 773.5,283.3 747.5,258.8 				"/>
				<polygon class="st7" points="773.5,283.3 714.9,316.7 696.5,297.3 747.5,258.8 				"/>
				<polygon class="st20" points="714.9,316.7 699.5,331.1 680.9,310 696.5,297.3 				"/>
				<polygon class="st19" points="699.5,331.1 663.2,354.3 661.5,337.3 642.9,331.1 680.9,310 				"/>
				<polygon class="st21" points="740.9,242.3 695.2,286 677.9,304.3 646.9,320 610.2,349.3 616.2,351.3 642.9,331.1 680.9,310 
					696.5,297.3 747.5,258.8 768.5,234.3 				"/>
				<polygon class="st12" points="610.2,349.3 610.2,370.3 629.9,386 635.5,377 616.2,365 616.2,351.3 				"/>
				<polygon class="st15" points="635.5,377 663.2,354.3 661.5,337.3 642.9,331.1 616.2,351.3 616.2,365 				"/>
				<polygon class="st22" points="629.9,386 671.2,381.3 702.5,365 750.2,320.3 780.2,292.7 806.5,265 795.1,255.7 773.5,283.3 
					714.9,316.7 699.5,331.1 663.2,354.3 635.5,377 				"/>
				<polygon class="st19" points="750.2,320.3 795.1,314.2 780.2,292.7 				"/>
				<polygon class="st4" points="822.8,320.9 819.7,341.3 795.1,314.2 780.2,292.7 				"/>
				<polygon class="st23" points="819.7,341.3 818.2,397 837.5,397 842.2,330.1 836.5,330 822.8,320.9 				"/>
				<polygon class="st24" points="818.2,397 804.1,426.7 789.9,479.3 806.5,489 837.5,397 				"/>
				<polygon class="st7" points="789.9,479.3 757.2,543.7 771.2,555 806.5,489 				"/>
				<polygon class="st11" points="757.2,543.7 731.9,572.3 744.5,582 771.2,555 				"/>
				<polygon class="st15" points="909.9,354.3 907.5,374.3 893.9,381.7 850.5,489 797.5,562.8 740.2,632.7 729.2,618 738.9,621.3 
					837.5,485.7 896.9,344.3 				"/>
				<polygon class="st16" points="731.9,572.3 718.2,608.7 722.2,632.7 740.2,632.7 729.2,618 729.2,618 738.9,621.3 837.5,485.7 
					896.9,344.3 880.2,331.1 842.2,330.1 837.5,397 806.5,489 771.2,555 				"/>
			</g>
			<g>
				<path class="st25" d="M294.5,229l43.3-34.3l-20-22.7L335.5,1.3h-105l4.7,173.7c0,0,0,5,75.3,11.7L294.5,229z"/>
				<polygon class="st26" points="235.1,175 235.1,229 244.5,271 280.5,305 261.8,261 262.5,181.4 				"/>
				<polygon class="st27" points="244.5,271 246.8,305 280.5,305 				"/>
				<polygon class="st28" points="262.5,181.4 310.5,186.7 294.5,229 286.5,272.7 304.8,323 280.5,305 261.8,261 				"/>
				<polygon class="st29" points="246.8,305 275.1,366.7 323.5,379.7 281.8,331.8 280.5,305 				"/>
				<polygon class="st30" points="323.5,379.7 321.1,355 304.8,323 280.5,305 281.8,331.8 				"/>
				<polygon class="st31" points="360.5,368.3 321.1,355 304.8,323 286.5,272.7 294.5,229 325,204.8 310.5,248.3 307.5,286.6 
					318.1,310.7 				"/>
				<polygon class="st30" points="337.8,194.7 350.1,245.7 308.9,269.1 310.5,248.3 325,204.8 				"/>
				<polygon class="st32" points="350.1,245.7 337.8,276 347.8,293.5 326.1,321.5 318.1,310.7 307.5,286.6 308.9,269.1 				"/>
				<polygon class="st27" points="347.8,293.5 385.1,330.3 326.1,321.5 				"/>
				<polygon class="st26" points="326.1,321.5 395.1,330.3 360.5,368.3 				"/>
				<path class="st33" d="M395.1,330.3l-10,31v50c0,0-13.7-6-24.7-43S395.1,330.3,395.1,330.3z"/>
				<polygon class="st34" points="350.1,245.7 460.8,267 371.8,325.3 347.8,293.5 337.8,276 				"/>
				<polygon class="st35" points="371.8,325.3 406.1,318.3 431.8,314.9 457.1,295 440,280.6 				"/>
				<polygon class="st36" points="385.1,411.3 381.5,431.3 329.5,414 329.5,397.3 314.1,377.7 323.5,379.7 321.1,355 360.5,368.3 
									"/>
				<polygon class="st37" points="275.1,366.7 299.1,404.7 329.5,414 329.5,397.3 314.1,377.7 				"/>
				<polygon class="st31" points="329.5,414 377,429.8 385.1,446.7 434.5,513.7 486.8,580 518.1,597.7 518.1,618.7 469.5,599 
					430.5,558 371.8,488.7 				"/>
				<polygon class="st38" points="353.8,496.3 389.5,496.3 409.8,517.8 381.8,517.8 				"/>
				<polygon class="st29" points="381.8,517.8 422.5,561 437.8,548.3 409.8,517.8 				"/>
				<polygon class="st39" points="429.5,515 429.5,527.3 452.1,552.7 463.5,539.4 443.1,515 				"/>
				<polygon class="st40" points="409.8,495 397.1,492 381.8,458.7 385.1,446.7 409.8,486.7 				"/>
				<polygon class="st41" points="385.1,446.7 393.8,439 416.1,476.3 409.8,486.7 				"/>
				<polygon class="st38" points="458.1,602 483.1,594.7 518.1,618.7 501.1,618.7 				"/>
				<polygon class="st32" points="437.1,229 435.5,271 442.1,288 495.5,323 509.8,307.2 				"/>
				<polygon class="st42" points="437.1,229 515.8,291.7 509.8,307.2 				"/>
				<polygon class="st31" points="444.4,305 446.5,319.7 462.8,319.7 495.1,342.3 495.5,323 455.2,296.5 				"/>
				<polygon class="st43" points="446.5,319.7 493.5,348.3 495.1,342.3 462.8,319.7 				"/>
				<polygon class="st31" points="515.8,291.7 520.1,309.4 512.5,340 552.5,379.7 541.1,384.7 506.1,366.7 495.5,323 509.8,307.2 
									"/>
				<polygon class="st32" points="552.5,379.7 556.5,368.3 534.8,348.3 525.5,319.7 512.5,340 				"/>
				<polygon class="st33" points="512.5,340 525.5,319.7 534.8,348.3 556.5,368.3 558.1,352 524,293.5 520.1,309.4 				"/>
				<polygon class="st29" points="227.5,1.3 223.1,48.7 213.1,88.3 258.1,128.3 269.8,118 280.5,50 280.5,1.3 				"/>
				<path class="st26" d="M292.5,1.3l-18,120.7c0,0,0.3,15.7,28.7,23L322.8,1.3H292.5z"/>
				<polygon class="st33" points="303.1,145 331.5,154.3 350.1,1.3 322.8,1.3 				"/>
				<polygon class="st44" points="299.1,404.7 275.1,407 341.5,485.3 371.8,488.7 377,474 329.5,414 				"/>
				<polygon class="st29" points="314.1,414 351.8,486.5 370.1,488.5 				"/>
			</g>
		</g>
	</g>
</g>
</svg>
