<?xml version="1.0" encoding="iso-8859-1"?>
<!-- Generator: Adobe Illustrator 19.0.0, SVG Export Plug-In . SVG Version: 6.00 Build 0)  -->
<svg version="1.1" id="Capa_1" xmlns="http://www.w3.org/2000/svg" xmlns:xlink="http://www.w3.org/1999/xlink" x="0px" y="0px"
	 viewBox="0 0 480 480" style="enable-background:new 0 0 480 480;" xml:space="preserve">
<path style="fill:#B3D5E4;" d="M325.776,303.6l12.96-12.96c-1.816-3.352-3.272-6.92-4.384-10.64H316v-32h18.352
	c1.112-3.72,2.568-7.288,4.384-10.64l-12.96-12.96L340,210.176V8H20v464h320V317.824L325.776,303.6z M212,64H52H212z M108,96H52H108
	z M196,128H52H196z M92,224H52H92z M52,192h160H52z M172,256H52H172z M308,384h-18.352c-1.112,3.72-2.568,7.288-4.384,10.64
	l12.96,12.96L275.6,430.224l-12.96-12.96c-3.352,1.816-6.92,3.272-10.64,4.384V440h-32v-18.352c-3.72-1.112-7.288-2.568-10.64-4.384
	l-12.96,12.96L173.776,407.6l12.96-12.96c-1.816-3.352-3.272-6.92-4.384-10.64H164v-32h18.352c1.112-3.72,2.568-7.288,4.384-10.64
	l-12.96-12.96l22.624-22.624l12.96,12.96c3.352-1.816,6.92-3.272,10.64-4.384V296h32v18.352c3.72,1.104,7.288,2.568,10.64,4.384
	l12.96-12.96l22.624,22.624l-12.96,12.96c1.816,3.352,3.272,6.92,4.384,10.64H308V384z M108,224h200H108z M228,192h80H228z M52,160
	h256H52z M212,128h96H212z M124,96h184H124z M228,64h80H228z"/>
<path style="fill:#D45B5B;" d="M285.264,341.36l12.96-12.96L275.6,305.776l-12.96,12.96c-3.352-1.816-6.92-3.272-10.64-4.384V296
	h-32v18.352c-3.72,1.104-7.288,2.568-10.64,4.384l-12.96-12.96L173.776,328.4l12.96,12.96c-1.816,3.352-3.272,6.92-4.384,10.64H164
	v32h18.352c1.112,3.72,2.568,7.288,4.384,10.64l-12.96,12.96l22.624,22.624l12.96-12.96c3.352,1.816,6.92,3.272,10.64,4.384V440h32
	v-18.352c3.72-1.112,7.288-2.568,10.64-4.384l12.96,12.96l22.624-22.624l-12.96-12.96c1.816-3.352,3.272-6.92,4.384-10.64H308v-32
	h-18.352C288.544,348.28,287.08,344.712,285.264,341.36z M236,400c-17.672,0-32-14.328-32-32s14.328-32,32-32s32,14.328,32,32
	S253.672,400,236,400z"/>
<circle style="fill:#B3D5E4;" cx="236" cy="368" r="32"/>
<path style="fill:#D45B5B;" d="M460,280v-32h-18.352c-1.112-3.72-2.568-7.288-4.384-10.64l12.96-12.96L427.6,201.776l-12.96,12.96
	c-3.352-1.816-6.92-3.272-10.64-4.384V192h-24h-8v18.352c-3.72,1.104-7.288,2.568-10.64,4.384l-12.96-12.96l-8.4,8.4L325.776,224.4
	l12.96,12.96c-1.816,3.352-3.272,6.92-4.384,10.64H316v32h18.352c1.112,3.72,2.568,7.288,4.384,10.64l-12.96,12.96L340,317.824
	l8.4,8.4l12.96-12.96c3.352,1.816,6.92,3.272,10.64,4.384V336h8h24v-18.352c3.72-1.112,7.288-2.568,10.64-4.384l12.96,12.96
	l22.624-22.624l-12.96-12.96c1.816-3.352,3.272-6.92,4.384-10.64H460z M388,296c-17.672,0-32-14.328-32-32s14.328-32,32-32
	s32,14.328,32,32S405.672,296,388,296z"/>
<g>
	<circle style="fill:#B3D5E4;" cx="388" cy="264" r="32"/>
	<path style="fill:#B3D5E4;" d="M348.4,201.776l12.96,12.96c3.352-1.816,6.92-3.272,10.64-4.384V192h8V8h-40v202.176L348.4,201.776z
		"/>
	<path style="fill:#B3D5E4;" d="M372,317.648c-3.72-1.112-7.288-2.568-10.64-4.384l-12.96,12.96l-8.4-8.4V472h40V336h-8V317.648z"/>
</g>
<g>
	<path style="fill:#23374E;" d="M236,328c-22.056,0-40,17.944-40,40s17.944,40,40,40s40-17.944,40-40S258.056,328,236,328z M236,392
		c-13.232,0-24-10.768-24-24s10.768-24,24-24s24,10.768,24,24S249.232,392,236,392z"/>
	<path style="fill:#23374E;" d="M308,344h-12.672c-0.136-0.328-0.264-0.656-0.4-0.984l8.96-8.96
		c1.504-1.504,2.344-3.536,2.344-5.656s-0.84-4.16-2.344-5.656l-22.632-22.632c-3-3-8.312-3-11.312,0l-8.96,8.96
		c-0.328-0.136-0.656-0.272-0.984-0.4V296c0-4.416-3.584-8-8-8h-32c-4.416,0-8,3.584-8,8v12.672c-0.328,0.136-0.656,0.264-0.984,0.4
		l-8.96-8.96c-1.504-1.504-3.536-2.344-5.656-2.344s-4.16,0.84-5.656,2.344l-22.632,22.632c-1.504,1.504-2.344,3.536-2.344,5.656
		s0.84,4.16,2.344,5.656l8.96,8.96c-0.136,0.328-0.272,0.656-0.4,0.984H164c-4.416,0-8,3.584-8,8v32c0,4.416,3.584,8,8,8h12.672
		c0.136,0.328,0.264,0.656,0.4,0.984l-8.96,8.96c-1.504,1.504-2.344,3.536-2.344,5.656s0.84,4.16,2.344,5.656l22.632,22.632
		c3,3,8.312,3,11.312,0l8.96-8.96c0.328,0.136,0.656,0.272,0.984,0.4V440c0,4.416,3.584,8,8,8h32c4.416,0,8-3.584,8-8v-12.672
		c0.328-0.136,0.656-0.264,0.984-0.4l8.96,8.96c1.504,1.504,3.536,2.344,5.656,2.344s4.16-0.84,5.656-2.344l22.632-22.632
		c1.504-1.504,2.344-3.536,2.344-5.656s-0.84-4.16-2.344-5.656l-8.96-8.96c0.136-0.328,0.272-0.656,0.4-0.984H308
		c4.416,0,8-3.584,8-8v-32C316,347.584,312.416,344,308,344z M300,376h-10.352c-3.536,0-6.664,2.328-7.664,5.72
		c-0.96,3.224-2.216,6.288-3.752,9.112c-1.688,3.112-1.128,6.968,1.376,9.472l7.304,7.304L275.6,418.92l-7.304-7.304
		c-2.504-2.504-6.352-3.064-9.472-1.376c-2.824,1.528-5.888,2.792-9.112,3.752c-3.384,1-5.712,4.12-5.712,7.656V432h-16v-10.352
		c0-3.536-2.328-6.664-5.72-7.664c-3.224-0.96-6.288-2.216-9.112-3.752c-3.12-1.688-6.968-1.12-9.472,1.376l-7.304,7.304
		L185.08,407.6l7.304-7.304c2.504-2.504,3.064-6.352,1.376-9.472c-1.528-2.824-2.792-5.888-3.752-9.112
		c-1-3.384-4.12-5.712-7.656-5.712H172v-16h10.352c3.536,0,6.664-2.328,7.664-5.72c0.96-3.224,2.216-6.288,3.752-9.112
		c1.688-3.112,1.128-6.968-1.376-9.472l-7.304-7.304L196.4,317.08l7.304,7.304c2.504,2.504,6.352,3.064,9.472,1.376
		c2.824-1.528,5.888-2.792,9.112-3.752c3.384-1,5.712-4.12,5.712-7.656V304h16v10.352c0,3.536,2.328,6.664,5.72,7.664
		c3.224,0.96,6.288,2.216,9.112,3.752c3.112,1.68,6.968,1.128,9.472-1.376l7.304-7.304L286.92,328.4l-7.304,7.304
		c-2.504,2.504-3.064,6.352-1.376,9.472c1.528,2.824,2.792,5.888,3.752,9.112c1,3.384,4.12,5.712,7.656,5.712H300V376z"/>
	<path style="fill:#23374E;" d="M388,224c-22.056,0-40,17.944-40,40s17.944,40,40,40s40-17.944,40-40S410.056,224,388,224z M388,288
		c-13.232,0-24-10.768-24-24s10.768-24,24-24s24,10.768,24,24S401.232,288,388,288z"/>
	<path style="fill:#23374E;" d="M460,240h-12.672c-0.136-0.328-0.264-0.656-0.4-0.984l8.96-8.96
		c1.504-1.504,2.344-3.536,2.344-5.656s-0.84-4.16-2.344-5.656l-22.632-22.632c-3-3-8.312-3-11.312,0l-8.96,8.96
		c-0.328-0.136-0.656-0.272-0.984-0.4V192c0-4.416-3.584-8-8-8h-16V8c0-4.416-3.584-8-8-8h-40H20c-4.416,0-8,3.584-8,8v464
		c0,4.416,3.584,8,8,8h320h40c4.416,0,8-3.584,8-8V344h16c4.416,0,8-3.584,8-8v-12.672c0.328-0.136,0.656-0.264,0.984-0.4l8.96,8.96
		c1.504,1.504,3.536,2.344,5.656,2.344s4.16-0.84,5.656-2.344l22.632-22.632c1.504-1.504,2.344-3.536,2.344-5.656
		s-0.84-4.16-2.344-5.656l-8.96-8.96c0.136-0.328,0.272-0.656,0.4-0.984H460c4.416,0,8-3.584,8-8v-32
		C468,243.584,464.416,240,460,240z M372,184c-4.416,0-8,3.584-8,8v12.672c-0.328,0.136-0.656,0.264-0.984,0.4l-8.96-8.96
		c-1.504-1.504-3.536-2.344-5.656-2.344c-0.136,0-0.272,0-0.4,0.008V16h24V184z M28,16h304v190.864l-11.88,11.88
		c-1.504,1.504-2.344,3.536-2.344,5.656s0.84,4.16,2.344,5.656l8.96,8.96c-0.136,0.328-0.272,0.656-0.4,0.984H316
		c-4.416,0-8,3.584-8,8v32c0,4.416,3.584,8,8,8h12.672c0.136,0.328,0.264,0.656,0.4,0.984l-8.96,8.96
		c-1.504,1.504-2.344,3.536-2.344,5.656s0.84,4.16,2.344,5.656L332,321.136V464H28V16z M372,464h-24V334.216
		c2.312,0.184,4.464-0.736,6.056-2.336l8.96-8.96c0.328,0.136,0.656,0.272,0.984,0.4V336c0,4.416,3.584,8,8,8V464z M452,272h-10.352
		c-3.536,0-6.664,2.328-7.664,5.72c-0.96,3.224-2.216,6.288-3.752,9.112c-1.688,3.112-1.128,6.968,1.376,9.472l7.304,7.304
		L427.6,314.92l-7.304-7.304c-2.504-2.504-6.352-3.064-9.472-1.376c-2.824,1.528-5.888,2.792-9.112,3.752
		c-3.384,1-5.712,4.12-5.712,7.656V328h-16v-10.352c0-3.536-2.328-6.664-5.72-7.664c-3.224-0.96-6.288-2.216-9.112-3.752
		c-3.12-1.68-6.968-1.128-9.472,1.376l-7.304,7.304L337.08,303.6l7.304-7.304c2.504-2.504,3.064-6.352,1.376-9.472
		c-1.528-2.824-2.792-5.888-3.752-9.112c-1-3.384-4.12-5.712-7.656-5.712H324v-16h10.352c3.536,0,6.664-2.328,7.664-5.72
		c0.96-3.224,2.216-6.288,3.752-9.112c1.688-3.112,1.128-6.968-1.376-9.472l-7.304-7.304L348.4,213.08l7.304,7.304
		c0.712,0.712,1.536,1.216,2.416,1.608c0.28,0.128,0.56,0.176,0.856,0.264c0.632,0.2,1.256,0.336,1.92,0.376
		c0.16,0.008,0.312,0.096,0.472,0.096c0.296,0,0.6-0.08,0.896-0.112c0.232-0.024,0.464-0.04,0.696-0.088
		c0.76-0.152,1.504-0.384,2.216-0.768c2.824-1.528,5.888-2.792,9.112-3.752c3.384-1,5.712-4.12,5.712-7.656V200h16v10.352
		c0,3.536,2.328,6.664,5.72,7.664c3.224,0.96,6.288,2.216,9.112,3.752c3.12,1.688,6.968,1.12,9.472-1.376l7.304-7.304L438.92,224.4
		l-7.304,7.304c-2.504,2.504-3.064,6.352-1.376,9.472c1.528,2.824,2.792,5.888,3.752,9.112c1,3.384,4.12,5.712,7.656,5.712H452V272z
		"/>
	<rect x="228" y="56" style="fill:#23374E;" width="80" height="16"/>
	<rect x="52" y="56" style="fill:#23374E;" width="160" height="16"/>
	<rect x="124" y="88" style="fill:#23374E;" width="184" height="16"/>
	<rect x="52" y="88" style="fill:#23374E;" width="56" height="16"/>
	<rect x="212" y="120" style="fill:#23374E;" width="96" height="16"/>
	<rect x="52" y="120" style="fill:#23374E;" width="144" height="16"/>
	<rect x="52" y="152" style="fill:#23374E;" width="256" height="16"/>
	<rect x="228" y="184" style="fill:#23374E;" width="80" height="16"/>
	<rect x="52" y="184" style="fill:#23374E;" width="160" height="16"/>
	<rect x="108" y="216" style="fill:#23374E;" width="200" height="16"/>
	<rect x="52" y="216" style="fill:#23374E;" width="40" height="16"/>
	<rect x="52" y="248" style="fill:#23374E;" width="120" height="16"/>
</g>
<g>
</g>
<g>
</g>
<g>
</g>
<g>
</g>
<g>
</g>
<g>
</g>
<g>
</g>
<g>
</g>
<g>
</g>
<g>
</g>
<g>
</g>
<g>
</g>
<g>
</g>
<g>
</g>
<g>
</g>
</svg>
