<?xml version="1.0" encoding="iso-8859-1"?>
<!-- Generator: Adobe Illustrator 19.0.0, SVG Export Plug-In . SVG Version: 6.00 Build 0)  -->
<svg version="1.1" id="Capa_1" xmlns="http://www.w3.org/2000/svg" xmlns:xlink="http://www.w3.org/1999/xlink" x="0px" y="0px"
	 viewBox="0 0 480 480" style="enable-background:new 0 0 480 480;" xml:space="preserve">
<g>
	<g>
		<path d="M236,328c-22.091,0-40,17.909-40,40c0,22.091,17.909,40,40,40c22.091,0,40-17.909,40-40
			C275.974,345.92,258.08,328.026,236,328z M236,392c-13.255,0-24-10.745-24-24s10.745-24,24-24s24,10.745,24,24
			S249.255,392,236,392z"/>
	</g>
</g>
<g>
	<g>
		<path d="M308,344h-12.672c-0.136-0.328-0.264-0.656-0.4-0.984l8.96-8.96c3.123-3.124,3.123-8.188,0-11.312l-22.632-22.632
			c-3.174-3.001-8.138-3.001-11.312,0l-8.96,8.96l-0.984-0.4V296c0-4.418-3.582-8-8-8h-32c-4.418,0-8,3.582-8,8v12.672l-0.984,0.4
			l-8.96-8.96c-3.124-3.123-8.188-3.123-11.312,0l-22.632,22.632c-3.123,3.124-3.123,8.188,0,11.312l8.96,8.96
			c-0.136,0.328-0.272,0.656-0.4,0.984H164c-4.418,0-8,3.582-8,8v32c0,4.418,3.582,8,8,8h12.672c0.136,0.328,0.264,0.656,0.4,0.984
			l-8.96,8.96c-3.123,3.124-3.123,8.188,0,11.312l22.632,22.632c3.174,3.001,8.138,3.001,11.312,0l8.96-8.96l0.984,0.4V440
			c0,4.418,3.582,8,8,8h32c4.418,0,8-3.582,8-8v-12.672l0.984-0.4l8.96,8.96c3.124,3.123,8.188,3.123,11.312,0l22.632-22.632
			c3.123-3.124,3.123-8.188,0-11.312l-8.96-8.96c0.136-0.328,0.272-0.656,0.4-0.984H308c4.418,0,8-3.582,8-8v-32
			C316,347.582,312.418,344,308,344z M300,376h-10.352c-3.539,0.002-6.656,2.328-7.664,5.72c-0.931,3.159-2.188,6.213-3.752,9.112
			c-1.689,3.114-1.129,6.968,1.376,9.472l7.304,7.304L275.6,418.912l-7.304-7.304c-2.504-2.505-6.358-3.065-9.472-1.376
			c-2.899,1.564-5.953,2.821-9.112,3.752c-3.392,1.008-5.718,4.125-5.72,7.664V432H228v-10.352c-0.002-3.539-2.328-6.656-5.72-7.664
			c-3.159-0.931-6.213-2.188-9.112-3.752c-3.114-1.689-6.968-1.129-9.472,1.376l-7.304,7.304L185.088,407.6l7.304-7.304
			c2.505-2.505,3.065-6.358,1.376-9.472c-1.564-2.899-2.821-5.953-3.752-9.112c-1.011-3.389-4.128-5.711-7.664-5.712H172v-16h10.352
			c3.539-0.002,6.656-2.328,7.664-5.72c0.931-3.159,2.188-6.213,3.752-9.112c1.689-3.114,1.129-6.968-1.376-9.472l-7.304-7.304
			L196.4,317.08l7.304,7.304c2.505,2.505,6.358,3.065,9.472,1.376c2.899-1.564,5.953-2.821,9.112-3.752
			c3.386-1.01,5.708-4.123,5.712-7.656V304h16v10.352c0.002,3.539,2.328,6.656,5.72,7.664c3.159,0.931,6.213,2.188,9.112,3.752
			c3.114,1.689,6.968,1.129,9.472-1.376l7.304-7.304L286.92,328.4l-7.304,7.304c-2.505,2.505-3.065,6.358-1.376,9.472
			c1.564,2.899,2.821,5.953,3.752,9.112c1.008,3.392,4.125,5.718,7.664,5.72H300V376z"/>
	</g>
</g>
<g>
	<g>
		<path d="M388,224c-22.091,0-40,17.909-40,40c0,22.091,17.909,40,40,40c22.091,0,40-17.909,40-40
			C427.974,241.92,410.08,224.026,388,224z M388,288c-13.255,0-24-10.745-24-24s10.745-24,24-24s24,10.745,24,24
			S401.255,288,388,288z"/>
	</g>
</g>
<g>
	<g>
		<path d="M460,240h-12.672c-0.136-0.328-0.264-0.656-0.4-0.984l8.96-8.96c3.123-3.124,3.123-8.188,0-11.312l-22.632-22.632
			c-3.174-3.001-8.138-3.001-11.312,0l-8.96,8.96l-0.984-0.4V192c0-4.418-3.582-8-8-8h-16V8c0-4.418-3.582-8-8-8H20
			c-4.418,0-8,3.582-8,8v464c0,4.418,3.582,8,8,8h360c4.418,0,8-3.582,8-8V344h16c4.418,0,8-3.582,8-8v-12.672l0.984-0.4l8.96,8.96
			c3.124,3.123,8.188,3.123,11.312,0l22.632-22.632c3.123-3.124,3.123-8.188,0-11.312l-8.96-8.96c0.136-0.328,0.272-0.656,0.4-0.984
			H460c4.418,0,8-3.582,8-8v-32C468,243.582,464.418,240,460,240z M348,16h24v168c-4.418,0-8,3.582-8,8v12.672l-0.984,0.4
			l-8.96-8.96c-1.5-1.5-3.534-2.344-5.656-2.344H348V16z M332,464H28V16h304v190.864l-11.88,11.88
			c-3.123,3.124-3.123,8.188,0,11.312l8.96,8.96c-0.136,0.328-0.272,0.656-0.4,0.984H316c-4.418,0-8,3.582-8,8v32
			c0,4.418,3.582,8,8,8h12.672c0.136,0.328,0.264,0.656,0.4,0.984l-8.96,8.96c-3.123,3.124-3.123,8.188,0,11.312L332,321.136V464z
			 M372,464h-24V334.216c2.265,0.155,4.482-0.701,6.056-2.336l8.96-8.96l0.984,0.4V336c0,4.418,3.582,8,8,8V464z M452,272h-10.352
			c-3.539,0.002-6.656,2.328-7.664,5.72c-0.931,3.159-2.188,6.213-3.752,9.112c-1.689,3.114-1.129,6.968,1.376,9.472l7.304,7.304
			L427.6,314.912l-7.304-7.304c-2.504-2.505-6.358-3.065-9.472-1.376c-2.899,1.564-5.953,2.821-9.112,3.752
			c-3.392,1.008-5.718,4.125-5.72,7.664V328H380v-10.352c-0.002-3.539-2.328-6.656-5.72-7.664c-3.159-0.931-6.213-2.188-9.112-3.752
			c-3.114-1.689-6.968-1.129-9.472,1.376l-7.304,7.304L337.088,303.6l7.304-7.304c2.505-2.505,3.065-6.358,1.376-9.472
			c-1.564-2.899-2.821-5.953-3.752-9.112c-1.011-3.389-4.128-5.711-7.664-5.712H324v-16h10.352c3.539-0.002,6.656-2.328,7.664-5.72
			c0.931-3.159,2.188-6.213,3.752-9.112c1.689-3.114,1.129-6.968-1.376-9.472l-7.304-7.304L348.4,213.08l7.304,7.304
			c0.695,0.676,1.509,1.218,2.4,1.6c0.28,0.105,0.566,0.193,0.856,0.264c0.622,0.205,1.267,0.331,1.92,0.376
			c0.16,0,0.312,0.096,0.472,0.096c0.301-0.02,0.6-0.058,0.896-0.112c0.232,0,0.464,0,0.696-0.088
			c0.774-0.155,1.521-0.425,2.216-0.8c2.899-1.564,5.953-2.821,9.112-3.752c3.378-1,5.704-4.093,5.728-7.616V200h16v10.352
			c0.002,3.539,2.328,6.656,5.72,7.664c3.159,0.931,6.213,2.188,9.112,3.752c3.114,1.689,6.968,1.129,9.472-1.376l7.304-7.304
			L438.92,224.4l-7.304,7.304c-2.505,2.504-3.065,6.358-1.376,9.472c1.564,2.899,2.821,5.953,3.752,9.112
			c1.008,3.392,4.125,5.718,7.664,5.72H452V272z"/>
	</g>
</g>
<g>
	<g>
		<rect x="228" y="56" width="80" height="16"/>
	</g>
</g>
<g>
	<g>
		<rect x="52" y="56" width="160" height="16"/>
	</g>
</g>
<g>
	<g>
		<rect x="124" y="88" width="184" height="16"/>
	</g>
</g>
<g>
	<g>
		<rect x="52" y="88" width="56" height="16"/>
	</g>
</g>
<g>
	<g>
		<rect x="212" y="120" width="96" height="16"/>
	</g>
</g>
<g>
	<g>
		<rect x="52" y="120" width="144" height="16"/>
	</g>
</g>
<g>
	<g>
		<rect x="52" y="152" width="256" height="16"/>
	</g>
</g>
<g>
	<g>
		<rect x="228" y="184" width="80" height="16"/>
	</g>
</g>
<g>
	<g>
		<rect x="52" y="184" width="160" height="16"/>
	</g>
</g>
<g>
	<g>
		<rect x="108" y="216" width="200" height="16"/>
	</g>
</g>
<g>
	<g>
		<rect x="52" y="216" width="40" height="16"/>
	</g>
</g>
<g>
	<g>
		<rect x="52" y="248" width="120" height="16"/>
	</g>
</g>
<g>
</g>
<g>
</g>
<g>
</g>
<g>
</g>
<g>
</g>
<g>
</g>
<g>
</g>
<g>
</g>
<g>
</g>
<g>
</g>
<g>
</g>
<g>
</g>
<g>
</g>
<g>
</g>
<g>
</g>
</svg>
