<?xml version="1.0" encoding="utf-8"?>
<!-- Generator: Adobe Illustrator 22.1.0, SVG Export Plug-In . SVG Version: 6.00 Build 0)  -->
<svg version="1.1" id="Слой_1" xmlns="http://www.w3.org/2000/svg" xmlns:xlink="http://www.w3.org/1999/xlink" x="0px" y="0px"
	 viewBox="0 0 1200 720" style="enable-background:new 0 0 1200 720;" xml:space="preserve">
<style type="text/css">
	.st0{fill:#199EB8;}
	.st1{opacity:0.24;}
	.st2{stroke:#000000;stroke-width:0.25;stroke-miterlimit:10;}
	.st3{fill:#F2A591;}
	.st4{fill:#F1A488;}
	.st5{fill:#F7A896;}
	.st6{fill:#E9C7AB;}
	.st7{fill:#F2F2F2;}
	.st8{fill:#181A1E;}
	.st9{fill:#FFFFFF;}
	.st10{fill:none;stroke:#000000;stroke-width:0.25;stroke-miterlimit:10;}
	.st11{fill:#D2D6D8;}
	.st12{fill:#333333;}
</style>
<g>
	<rect class="st0" width="1200" height="720"/>
	<g>
		<g class="st1">
			<g>
				<path d="M854,449.1c0,0,45.3-8.3,52.7-28.8c0,0,66.3,4.5,89.7-25.3s-116.2,17.3-116.2,17.3L869,438.6L854,449.1z"/>
				<path d="M996.4,395c0,0-1.3,23.7-23.7,26.9c0,0-25.9,10.2-64,6.4c-38.1-3.8,11.2-24,11.2-24L996.4,395z"/>
				<path d="M757.2,509c0,0,23.3-3,39.1-63.7c0,0,12.4-6.4,52.6-40.1L830.3,369l-65.4,87.8L757.2,509z"/>
				<path d="M785.3,478.9c0,0,3.3,12.2,10,53.5c0,0,40.7,4.2,24.2-53.7c-1.8-6.2-0.2-12.8,4.2-17.4c8.1-8.6,22.2-22.4,38.3-32.1
					l8.1-23.2l-33.9-44.6l-71.3,91.9L785.3,478.9z"/>
				<path d="M829,356.4c0,0,3.3,27.3,32.4,45.4c23.5,14.6,64.2,61.9,164.3,6s-186.9-62.4-186.9-62.4L829,356.4z"/>
				<path d="M795.3,532.4c0,0,28.8-13.4,11.8-61.5l25.1-25l-9.3-13.8l-23.5,13.8l-13.7,37.5L795.3,532.4z"/>
				<path d="M849.6,442.4l-11.3,20.1c-5.5,9.8-4.3,22,3.1,30.5c4.9,5.6,10.1,13.3,14.2,23.3c0.8,2,3.3,2.8,5.1,1.6
					c3.8-2.7,8.5-10.4,4.2-31.7c-1.1-5.5,0.3-11.2,4-15.5c9.3-10.9,26-32.1,25.3-42.7C893.2,413.4,849.6,442.4,849.6,442.4z"/>
				<path d="M655.5,355.1c0,0,8.2,11.7,17.1,11.4c9-0.3,25.9,2.2,48.3-10.9c0,0,62.1,3.5,75.6-5.1c0,0,22.1,9.3,44.2,8
					c0,0,24.7,5.1,44.2,18.2l-33.3-51.6l-177.4,23.1L655.5,355.1z"/>
				<path d="M829,358.3c0,0-21.7,39.2-60,60.3c-4.4,2.4-7.2,6.9-7.6,11.8c-1.1,13.3-5.8,41.6-24.6,75.4c0,0-2.6,10.6,20.5,3.2
					c0,0,17.2-8.3,25.9-44.8c0,0,5.2-20.8,11.6-27.2c0,0,40.5-17.7,59.4-40.4L829,358.3z"/>
				<path d="M747.2,483.8c0,0,5.6,2.4,8.9,2.6c0,0-0.7,15.1-15.3,23.3c0,0-5.8-1.1-3.8-4.8S747.2,483.8,747.2,483.8z"/>
				<path d="M1200,459.7c-123.3-6.1-203.6-64.7-203.6-64.7c-33.9,23.7-96.4,24.7-96.4,24.7c-1.3,9-47.1,36.5-63.7,31.1
					c-13.3-4.4-14.6-13.8-14.5-17.5c0-0.8,0.6-1.6,1.4-1.8c52.2-15.1,70.5-60.8,70.5-60.8l-8.6,6.1c-29.1-24-50.9-23.4-50.9-23.4
					c-25.3-3.2-35.2-11.8-35.2-11.8c-75.2,14.1-81.3,3.8-81.3,3.8c-13.4,10.2-60.2,16.7-63.4,8c-3.2-8.6,0-14.4,0-14.4
					c8.6-4.8,40.3-8.3,40.3-8.3c12.5-3.2,20.8-7.4,20.8-7.4c20.5-1.9,67.2-16.7,71.7-18.3c3.1-1.1,6.9-0.7,8.9-0.3
					c1.4,0.3,2.8,0.5,4.2,0.7c68.9,10.2,103.2,24.6,103.2,24.6c46.4-4.5,72.7,9,72.7,9c43,13.9,62.8,15.5,70.8,15.3
					c3.2-0.1,6.5,0.3,9.5,1.4c39.7,13.5,143.8-4.2,143.8-4.2v108.2H1200z"/>
				<path d="M1200,487.5C1019.4,435,996.4,395,996.4,395l203.6,6.4V487.5z"/>
				<path d="M694.4,330.6v6.4c0,0-25.9,7.4-40.3,1.9C654.1,339,654.4,335.8,694.4,330.6z"/>
				<path d="M841.8,424.2c0,0,2.4,7.1,12.2,9.6c0,0-0.6,8-25.5,9.7c-0.9,0.1-1.7-0.3-2.3-0.9c-1.3-1.4-3.3-4.4-4.1-8.9
					c-0.2-1,0.4-2,1.4-2.3C827.8,429.8,839.3,425.7,841.8,424.2z"/>
			</g>
			<g>
				<path d="M250.2,304.5l23.2-11.5l-18.8-61.3c0,0-13.1-1.4-22.1,4.4c-9,5.8-12.4,47.7-12.4,47.7L250.2,304.5z"/>
				<polygon points="470.8,219.7 489.6,221.5 485.6,251.9 466.5,250.7 				"/>
				<path d="M545.5,286.3c0,0,2.9-2.2,10,5.6s18.9-23.6,18.9-23.6s-20-8.8-25.3-11.3C543.8,254.5,545.5,286.3,545.5,286.3z"/>
				<path d="M589.5,313.6c0,0,7.4,4.9,9.2,8.6s8.6-8.6,8.6-8.6l-8.9-14.8l-11.1,12.1L589.5,313.6z"/>
				<polygon points="489.6,356.2 491.5,368.3 507.8,361.6 507.8,341.1 				"/>
				<polygon points="470.8,310.9 478.1,320.5 494.1,320.5 496.4,310.6 485,287.9 				"/>
				<path d="M407.2,267.3c0,0,18.8,14.5,28.3,36.8c0,0,10.4,3.1,26.4-8.6s-33-48.1-33-48.1L407.2,267.3z"/>
				<polygon points="440,305.4 444.3,315.2 468.5,307.6 459,287.9 				"/>
				<polygon points="453.2,342.9 453.2,354.3 466.5,349.4 466.5,328.8 				"/>
				<path d="M344.7,342.9H356l9.8,11.1c0,0-12.5,8.4-20.7,7.1S344.7,342.9,344.7,342.9z"/>
				<path d="M423,283.4c0,0-8.3,17.7-15.8,21c-7.6,3.3-30.4,46.1-30.4,46.1l-11.1,7.7c0,0-16.8-14.5-15.4-26.7l44.7-43.7l4.6-20
					l22-2.1L423,283.4z"/>
				<path d="M448.3,349c0,0,8.9,4.7,22.5-1.8c0,0-9.4,15.1-11.8,32.1c0,0-7.3,6.7-11.9-8.7C442.5,355.2,448.3,349,448.3,349z"/>
				<path class="st2" d="M458.1,350.6c0,0-9.7,15.8-7.6,27.3"/>
				<path d="M465.1,300.9c-15.6,16.2-25.1,12.7-25.1,12.7s7.1,8,8.3,29.3l22.5-3.1l-0.5-46.7L465.1,300.9z"/>
				<path class="st2" d="M453.2,310.9c0,0,4.8,10,5.8,30.5"/>
				<path d="M514.3,360.2c0,0-8.6,9.9-12.6,39.1c0,0-10.5,10.7-16.6-11c0,0-4-16.8,2.5-25.1C487.5,363.2,491.2,365.7,514.3,360.2z"
					/>
				<path class="st2" d="M499,363.2c0,0-6.9,2.3-7.7,37.1"/>
				<path d="M483.8,355.8c0,0,10.2,2.7,30.5-6.8c0,0-5.8-38.9-15.2-41.5c0,0-13.7,12.9-25.1,13.8
					C473.9,321.3,480.7,330.8,483.8,355.8z"/>
				<path class="st2" d="M487.7,316.1c0,0,9,16.9,12.6,38.2"/>
				<path d="M465,307.6c5.3,11.9,31.4-14.4,31.4-14.4l-36.4-49l-38.4,21.7C421.6,265.9,454.8,284.8,465,307.6z"/>
				<path class="st2" d="M483.8,304c0,0-18.9-29.7-30.6-41.2"/>
				<path d="M365.7,323.8c0,0,2.6,5.1,7.5,8.9c4.9,3.7,38.5-10.1,38.5-10.1s-3.1,0.8-6.2-13.3C402.4,295.1,365.7,323.8,365.7,323.8z
					"/>
				<path d="M330,278.8c0,0,18.5-33.9,66.9-25.6c0,0-4,15.4,17.6,55.8c0,0-29.3-2.3-55.2,19.8C359.3,328.8,336.5,303.2,330,278.8z"
					/>
				<path class="st2" d="M356,257c0,0,19.9,52,28.3,56.6"/>
				<polygon points="408.8,377 414.4,388.3 437.2,385.7 435.5,373.3 428.8,363.2 411.7,360.2 				"/>
				<circle cx="388.7" cy="304.4" r="3.1"/>
				<path d="M411.7,389.7c0,0,12.6-5.7,26.8-19.2c0,0,19.7,14.9,13.6,43.8c-6.2,29-30.5,17.9-30.5,17.9S425.5,408.8,411.7,389.7z"/>
				<path class="st2" d="M425.7,381.2c0,0,16.4,21.9,6.8,53.1"/>
				<path d="M368.8,337c0,0,15.7-20,48.4-18.2c0,0,5.9,20.3,20,36.4c0,0-17.9,19.1-34.2,24C403,379.3,388.5,373.1,368.8,337z"/>
				<path class="st2" d="M387.5,323.8c0,0,14.4,16.8,32.1,46.7"/>
				<circle cx="419.5" cy="358.3" r="3.1"/>
				<path d="M278.2,300.9c-29.6-29.1-27.7-79.1-27.7-79.1l68.7-27.7c0,0,131.3-1.8,149.8,6.8c0,0,7.7,40.1-8.6,61.3l-60.7,5.8
					L278.2,300.9z"/>
				<polyline class="st2" points="255.8,260.7 353.4,227.7 453.6,229.2 470.3,233.2 				"/>
				<path d="M332.4,286.2c0,0-16.9,3.1-19.1-23.1s40.1-35.4,40.1-35.4S395,218,406.1,252c0,0,5.5,16.6-8,16.5
					C384.5,268.3,332.4,286.2,332.4,286.2z"/>
				<circle cx="414.4" cy="241.9" r="5.5"/>
				<circle cx="281" cy="268" r="5.5"/>
				<path d="M347,338.4c0,0-4,0.2-1.5,27.9c0,0-26.8,7.3-34.2,4.3C311.2,370.6,311.8,341.4,347,338.4z"/>
				<path class="st2" d="M344.7,354.3c0,0-14.2-2.4-31.4,6.8"/>
				<path d="M0,443.7c0,0,133.1-56.7,254.5-132.5c0,0-21-25.6-22.5-83.5c0,0-191.7,38.5-232,58.2V443.7z"/>
				<path d="M0,407c0,0,66.6-33.6,89-51.1c0,0,2.5-13.2-2.2-21.6L0,379.9V407z"/>
				<path d="M86.9,334.3c0,0-5.5-18.2-13.9-21.6L0,342.9v37L86.9,334.3z"/>
				<path class="st2" d="M85.1,329.4c0,0,86.4-45,152.7-57.1"/>
				<circle cx="110.3" cy="305.4" r="5.5"/>
				<circle cx="94" cy="313.6" r="5.5"/>
				<path d="M607.6,305.4c0,0,3.4,13.8,19.1,37.5c0,0,0,8.3-15.4,2.5c-15.4-5.9-19.7-22.8-19.7-22.8S600.8,322.4,607.6,305.4z"/>
				<path class="st2" d="M601.6,316.1c0,0,10,27.4,19.6,31.1"/>
				<path d="M473.9,260.7c9.6-23,5.5-46.9,5.5-46.9s65.3,18.3,79.2,38.1c0,0,0,27.5-18.5,38.4L473.9,260.7z"/>
				<path class="st2" d="M479.6,238c0,0,45.6,11.5,75.8,31.8"/>
				<path d="M564.8,260.7c0,0,2.8,17.2-12.3,34.1c0,0,21.6,9.2,32.7,20.3c0,0,6.8,0.6,18.5-16.6
					C603.6,298.5,582.7,262.3,564.8,260.7z"/>
				<path class="st2" d="M563.1,276.3c0,0,28.3,20.9,33.5,31.3"/>
				<circle cx="489.4" cy="231.7" r="4.1"/>
			</g>
		</g>
		<g>
			<g>
				<path class="st3" d="M854,442.8c0,0,45.3-8.3,52.7-28.8c0,0,66.3,4.5,89.7-25.3S880.2,406,880.2,406L869,432.3L854,442.8z"/>
				<path class="st4" d="M996.4,388.7c0,0-1.3,23.7-23.7,26.9c0,0-25.9,10.2-64,6.4c-38.1-3.8,11.2-24,11.2-24L996.4,388.7z"/>
				<path class="st3" d="M757.2,502.6c0,0,23.3-3,39.1-63.7c0,0,12.4-6.4,52.6-40.1l-18.6-36.2l-65.4,87.8L757.2,502.6z"/>
				<path class="st3" d="M785.3,472.5c0,0,3.3,12.2,10,53.5c0,0,40.7,4.2,24.2-53.7c-1.8-6.2-0.2-12.8,4.2-17.4
					c8.1-8.6,22.2-22.4,38.3-32.1l8.1-23.2L836.2,355l-71.3,91.9L785.3,472.5z"/>
				<path class="st5" d="M829,350c0,0,3.3,27.3,32.4,45.4c23.5,14.6,64.2,61.9,164.3,6S838.8,339,838.8,339L829,350z"/>
				<path class="st6" d="M795.3,526c0,0,28.8-13.4,11.8-61.5l25.1-25l-9.3-13.8l-23.5,13.8L785.8,477L795.3,526z"/>
				<path class="st4" d="M849.6,436.1l-11.3,20.1c-5.5,9.8-4.3,22,3.1,30.5c4.9,5.6,10.1,13.3,14.2,23.3c0.8,2,3.3,2.8,5.1,1.6
					c3.8-2.7,8.5-10.4,4.2-31.7c-1.1-5.5,0.3-11.2,4-15.5c9.3-10.9,26-32.1,25.3-42.7C893.2,407,849.6,436.1,849.6,436.1z"/>
				<path class="st3" d="M655.5,348.7c0,0,8.2,11.7,17.1,11.4c9-0.3,25.9,2.2,48.3-10.9c0,0,62.1,3.5,75.6-5.1c0,0,22.1,9.3,44.2,8
					c0,0,24.7,5.1,44.2,18.2l-33.3-51.6l-177.4,23.1L655.5,348.7z"/>
				<path class="st6" d="M829,352c0,0-21.7,39.2-60,60.3c-4.4,2.4-7.2,6.9-7.6,11.8c-1.1,13.3-5.8,41.6-24.6,75.4
					c0,0-2.6,10.6,20.5,3.2c0,0,17.2-8.3,25.9-44.8c0,0,5.2-20.8,11.6-27.2c0,0,40.5-17.7,59.4-40.4L829,352z"/>
				<path class="st7" d="M747.2,477.4c0,0,5.6,2.4,8.9,2.6c0,0-0.7,15.1-15.3,23.3c0,0-5.8-1.1-3.8-4.8S747.2,477.4,747.2,477.4z"/>
				<path class="st6" d="M1200,453.3c-123.3-6.1-203.6-64.7-203.6-64.7c-33.9,23.7-96.4,24.7-96.4,24.7c-1.3,9-47.1,36.5-63.7,31.1
					c-13.3-4.4-14.6-13.8-14.5-17.5c0-0.8,0.6-1.6,1.4-1.8c52.2-15.1,70.5-60.8,70.5-60.8l-8.6,6.1C855.8,346.4,834,347,834,347
					c-25.3-3.2-35.2-11.8-35.2-11.8c-75.2,14.1-81.3,3.8-81.3,3.8c-13.4,10.2-60.2,16.7-63.4,8c-3.2-8.6,0-14.4,0-14.4
					c8.6-4.8,40.3-8.3,40.3-8.3c12.5-3.2,20.8-7.4,20.8-7.4c20.5-1.9,67.2-16.7,71.7-18.3c3.1-1.1,6.9-0.7,8.9-0.3
					c1.4,0.3,2.8,0.5,4.2,0.7c68.9,10.2,103.2,24.6,103.2,24.6c46.4-4.5,72.7,9,72.7,9c43,13.9,62.8,15.5,70.8,15.3
					c3.2-0.1,6.5,0.3,9.5,1.4c39.7,13.5,143.8-4.2,143.8-4.2L1200,453.3L1200,453.3z"/>
				<path class="st3" d="M1200,481.2c-180.6-52.5-203.6-92.5-203.6-92.5l203.6,6.4V481.2z"/>
				<path class="st7" d="M694.4,324.3v6.4c0,0-25.9,7.4-40.3,1.9C654.1,332.6,654.4,329.4,694.4,324.3z"/>
				<path class="st7" d="M841.8,417.8c0,0,2.4,7.1,12.2,9.6c0,0-0.6,8-25.5,9.7c-0.9,0.1-1.7-0.3-2.3-0.9c-1.3-1.4-3.3-4.4-4.1-8.9
					c-0.2-1,0.4-2,1.4-2.3C827.8,423.4,839.3,419.4,841.8,417.8z"/>
			</g>
			<g>
				<path class="st8" d="M250.2,298.1l23.2-11.5l-18.8-61.3c0,0-13.1-1.4-22.1,4.4c-9,5.8-12.4,47.7-12.4,47.7L250.2,298.1z"/>
				<polygon class="st8" points="470.8,213.3 489.6,215.2 485.6,245.6 466.5,244.3 				"/>
				<path class="st8" d="M545.5,280c0,0,2.9-2.2,10,5.6s18.9-23.6,18.9-23.6s-20-8.8-25.3-11.3C543.8,248.1,545.5,280,545.5,280z"/>
				<path class="st8" d="M589.5,307.3c0,0,7.4,4.9,9.2,8.6s8.6-8.6,8.6-8.6l-8.9-14.8l-11.1,12.1L589.5,307.3z"/>
				<polygon class="st8" points="489.6,349.8 491.5,361.9 507.8,355.3 507.8,334.7 				"/>
				<polygon class="st8" points="470.8,304.5 478.1,314.2 494.1,314.2 496.4,304.3 485,281.6 				"/>
				<path class="st7" d="M407.2,260.9c0,0,18.8,14.5,28.3,36.8c0,0,10.4,3.1,26.4-8.6s-33-48.1-33-48.1L407.2,260.9z"/>
				<polygon class="st8" points="440,299 444.3,308.8 468.5,301.2 459,281.6 				"/>
				<polygon class="st8" points="453.2,336.6 453.2,347.9 466.5,343 466.5,322.5 				"/>
				<path class="st8" d="M344.7,336.6H356l9.8,11.1c0,0-12.5,8.4-20.7,7.1S344.7,336.6,344.7,336.6z"/>
				<path class="st7" d="M423,277.1c0,0-8.3,17.7-15.8,21c-7.6,3.3-30.4,46.1-30.4,46.1l-11.1,7.7c0,0-16.8-14.5-15.4-26.7
					l44.7-43.7l4.6-20l22-2.1L423,277.1z"/>
				<path class="st9" d="M448.3,342.7c0,0,8.9,4.7,22.5-1.8c0,0-9.4,15.1-11.8,32.1c0,0-7.3,6.7-11.9-8.7S448.3,342.7,448.3,342.7z"
					/>
				<path class="st10" d="M458.1,344.2c0,0-9.7,15.8-7.6,27.3"/>
				<path class="st7" d="M465.1,294.5c-15.6,16.2-25.1,12.7-25.1,12.7s7.1,8,8.3,29.3l22.5-3.1l-0.5-46.7L465.1,294.5z"/>
				<path class="st10" d="M453.2,304.5c0,0,4.8,10,5.8,30.5"/>
				<path class="st9" d="M514.3,353.8c0,0-8.6,9.9-12.6,39.1c0,0-10.5,10.7-16.6-11c0,0-4-16.8,2.5-25.1
					C487.5,356.9,491.2,359.4,514.3,353.8z"/>
				<path class="st10" d="M499,356.9c0,0-6.9,2.3-7.7,37.1"/>
				<path class="st9" d="M483.8,349.4c0,0,10.2,2.7,30.5-6.8c0,0-5.8-38.9-15.2-41.5c0,0-13.7,12.9-25.1,13.8
					C473.9,315,480.7,324.4,483.8,349.4z"/>
				<path class="st10" d="M487.7,309.7c0,0,9,16.9,12.6,38.2"/>
				<path class="st9" d="M465,301.2c5.3,11.9,31.4-14.4,31.4-14.4l-36.4-49l-38.4,21.7C421.6,259.5,454.8,278.5,465,301.2z"/>
				<path class="st10" d="M483.8,297.7c0,0-18.9-29.7-30.6-41.2"/>
				<path class="st8" d="M365.7,317.5c0,0,2.6,5.1,7.5,8.9c4.9,3.7,38.5-10.1,38.5-10.1s-3.1,0.8-6.2-13.3
					C402.4,288.8,365.7,317.5,365.7,317.5z"/>
				<path class="st9" d="M330,272.5c0,0,18.5-33.9,66.9-25.6c0,0-4,15.4,17.6,55.8c0,0-29.3-2.3-55.2,19.8
					C359.3,322.5,336.5,296.8,330,272.5z"/>
				<path class="st10" d="M356,250.7c0,0,19.9,52,28.3,56.6"/>
				<polygon class="st8" points="408.8,370.6 414.4,382 437.2,379.4 435.5,367 428.8,356.9 411.7,353.8 				"/>
				<circle class="st11" cx="388.7" cy="298.1" r="3.1"/>
				<path class="st9" d="M411.7,383.4c0,0,12.6-5.7,26.8-19.2c0,0,19.7,14.9,13.6,43.8s-30.5,17.9-30.5,17.9
					S425.5,402.5,411.7,383.4z"/>
				<path class="st10" d="M425.7,374.9c0,0,16.4,21.9,6.8,53.1"/>
				<path class="st9" d="M368.8,330.7c0,0,15.7-20,48.4-18.2c0,0,5.9,20.3,20,36.4c0,0-17.9,19.1-34.2,24
					C403,372.9,388.5,366.8,368.8,330.7z"/>
				<path class="st10" d="M387.5,317.5c0,0,14.4,16.8,32.1,46.7"/>
				<circle class="st11" cx="419.5" cy="352" r="3.1"/>
				<path class="st9" d="M278.2,294.5c-29.6-29.1-27.7-79.1-27.7-79.1l68.7-27.7c0,0,131.3-1.8,149.8,6.8c0,0,7.7,40.1-8.6,61.3
					l-60.7,5.8L278.2,294.5z"/>
				<polyline class="st10" points="255.8,254.4 353.4,221.3 453.6,222.9 470.3,226.9 				"/>
				<path class="st8" d="M332.4,279.9c0,0-16.9,3.1-19.1-23.1s40.1-35.4,40.1-35.4s41.6-9.7,52.7,24.3c0,0,5.5,16.6-8,16.5
					C384.5,262,332.4,279.9,332.4,279.9z"/>
				<circle class="st11" cx="414.4" cy="235.5" r="5.5"/>
				<circle class="st11" cx="281" cy="261.6" r="5.5"/>
				<path class="st9" d="M347,332.1c0,0-4,0.2-1.5,27.9c0,0-26.8,7.3-34.2,4.3C311.2,364.2,311.8,335,347,332.1z"/>
				<path class="st10" d="M344.7,347.9c0,0-14.2-2.4-31.4,6.8"/>
				<path class="st9" d="M0,437.3c0,0,133.1-56.7,254.5-132.5c0,0-21-25.6-22.5-83.5c0,0-191.7,38.5-232,58.2V437.3z"/>
				<path class="st12" d="M0,400.6c0,0,66.6-33.6,89-51.1c0,0,2.5-13.2-2.2-21.6L0,373.5V400.6z"/>
				<path d="M86.9,327.9c0,0-5.5-18.2-13.9-21.6L0,336.6v37L86.9,327.9z"/>
				<path class="st10" d="M85.1,323.1c0,0,86.4-45,152.7-57.1"/>
				<circle class="st11" cx="110.3" cy="299" r="5.5"/>
				<circle class="st11" cx="94" cy="307.3" r="5.5"/>
				<path class="st9" d="M607.6,299c0,0,3.4,13.8,19.1,37.5c0,0,0,8.3-15.4,2.5c-15.4-5.9-19.7-22.8-19.7-22.8S600.8,316,607.6,299z
					"/>
				<path class="st10" d="M601.6,309.7c0,0,10,27.4,19.6,31.1"/>
				<path class="st9" d="M473.9,254.4c9.6-23,5.5-46.9,5.5-46.9s65.3,18.3,79.2,38.1c0,0,0,27.5-18.5,38.4L473.9,254.4z"/>
				<path class="st10" d="M479.6,231.7c0,0,45.6,11.5,75.8,31.8"/>
				<path class="st9" d="M564.8,254.4c0,0,2.8,17.2-12.3,34.1c0,0,21.6,9.2,32.7,20.3c0,0,6.8,0.6,18.5-16.6
					C603.6,292.2,582.7,256,564.8,254.4z"/>
				<path class="st10" d="M563.1,270c0,0,28.3,20.9,33.5,31.3"/>
				<circle class="st11" cx="489.4" cy="225.4" r="4.1"/>
			</g>
		</g>
	</g>
</g>
</svg>
