<?xml version="1.0" encoding="UTF-8"?>
<svg width="721px" height="1202px" viewBox="0 0 721 1202" version="1.1" xmlns="http://www.w3.org/2000/svg" xmlns:xlink="http://www.w3.org/1999/xlink">
    <!-- Generator: Sketch 51.1 (57501) - http://www.bohemiancoding.com/sketch -->
    <title>Untitled</title>
    <desc>Created with Sketch.</desc>
    <defs>
        <radialGradient cx="50%" cy="50%" fx="50%" fy="50%" r="78.6115972%" gradientTransform="translate(0.500000,0.500000),scale(0.600000,1.000000),translate(-0.500000,-0.500000)" id="radialGradient-1">
            <stop stop-color="#004378" offset="0%"></stop>
            <stop stop-color="#004B7D" offset="53.85%"></stop>
            <stop stop-color="#004277" offset="100%"></stop>
        </radialGradient>
    </defs>
    <g id="Page-1" stroke="none" stroke-width="1" fill="none" fill-rule="evenodd">
        <g id="robo_human_wisdom" transform="translate(360.500000, 601.000000) rotate(-270.000000) translate(-360.500000, -601.000000) translate(-240.000000, 241.000000)">
            <rect id="Rectangle-path" fill="url(#radialGradient-1)" fill-rule="nonzero" x="0" y="0" width="1200" height="720"></rect>
            <g id="Group" transform="translate(0.000000, 187.000000)">
                <g opacity="0.24" transform="translate(0.000000, 6.000000)" fill="#000000" fill-rule="nonzero">
                    <g transform="translate(652.000000, 111.000000)" id="Shape">
                        <path d="M202,145.1 C202,145.1 247.3,136.8 254.7,116.3 C254.7,116.3 321,120.8 344.4,91 C367.8,61.2 228.2,108.3 228.2,108.3 L217,134.6 L202,145.1 Z"></path>
                        <path d="M344.4,91 C344.4,91 343.1,114.7 320.7,117.9 C320.7,117.9 294.8,128.1 256.7,124.3 C218.6,120.5 267.9,100.3 267.9,100.3 L344.4,91 Z"></path>
                        <path d="M105.2,205 C105.2,205 128.5,202 144.3,141.3 C144.3,141.3 156.7,134.9 196.9,101.2 L178.3,65 L112.9,152.8 L105.2,205 Z"></path>
                        <path d="M133.3,174.9 C133.3,174.9 136.6,187.1 143.3,228.4 C143.3,228.4 184,232.6 167.5,174.7 C165.7,168.5 167.3,161.9 171.7,157.3 C179.8,148.7 193.9,134.9 210,125.2 L218.1,102 L184.2,57.4 L112.9,149.3 L133.3,174.9 Z"></path>
                        <path d="M177,52.4 C177,52.4 180.3,79.7 209.4,97.8 C232.9,112.4 273.6,159.7 373.7,103.8 C473.8,47.9 186.8,41.4 186.8,41.4 L177,52.4 Z"></path>
                        <path d="M143.3,228.4 C143.3,228.4 172.1,215 155.1,166.9 L180.2,141.9 L170.9,128.1 L147.4,141.9 L133.7,179.4 L143.3,228.4 Z"></path>
                        <path d="M197.6,138.4 L186.3,158.5 C180.8,168.3 182,180.5 189.4,189 C194.3,194.6 199.5,202.3 203.6,212.3 C204.4,214.3 206.9,215.1 208.7,213.9 C212.5,211.2 217.2,203.5 212.9,182.2 C211.8,176.7 213.2,171 216.9,166.7 C226.2,155.8 242.9,134.6 242.2,124 C241.2,109.4 197.6,138.4 197.6,138.4 Z"></path>
                        <path d="M3.5,51.1 C3.5,51.1 11.7,62.8 20.6,62.5 C29.6,62.2 46.5,64.7 68.9,51.6 C68.9,51.6 131,55.1 144.5,46.5 C144.5,46.5 166.6,55.8 188.7,54.5 C188.7,54.5 213.4,59.6 232.9,72.7 L199.6,21.1 L22.2,44.2 L3.5,51.1 Z"></path>
                        <path d="M177,54.3 C177,54.3 155.3,93.5 117,114.6 C112.6,117 109.8,121.5 109.4,126.4 C108.3,139.7 103.6,168 84.8,201.8 C84.8,201.8 82.2,212.4 105.3,205 C105.3,205 122.5,196.7 131.2,160.2 C131.2,160.2 136.4,139.4 142.8,133 C142.8,133 183.3,115.3 202.2,92.6 L177,54.3 Z"></path>
                        <path d="M95.2,179.8 C95.2,179.8 100.8,182.2 104.1,182.4 C104.1,182.4 103.4,197.5 88.8,205.7 C88.8,205.7 83,204.6 85,200.9 C87,197.2 95.2,179.8 95.2,179.8 Z"></path>
                        <path d="M548,155.7 C424.7,149.6 344.4,91 344.4,91 C310.5,114.7 248,115.7 248,115.7 C246.7,124.7 200.9,152.2 184.3,146.8 C171,142.4 169.7,133 169.8,129.3 C169.8,128.5 170.4,127.7 171.2,127.5 C223.4,112.4 241.7,66.7 241.7,66.7 L233.1,72.8 C204,48.8 182.2,49.4 182.2,49.4 C156.9,46.2 147,37.6 147,37.6 C71.8,51.7 65.7,41.4 65.7,41.4 C52.3,51.6 5.5,58.1 2.3,49.4 C-0.9,40.8 2.3,35 2.3,35 C10.9,30.2 42.6,26.7 42.6,26.7 C55.1,23.5 63.4,19.3 63.4,19.3 C83.9,17.4 130.6,2.6 135.1,1 C138.2,-0.1 142,0.3 144,0.7 C145.4,1 146.8,1.2 148.2,1.4 C217.1,11.6 251.4,26 251.4,26 C297.8,21.5 324.1,35 324.1,35 C367.1,48.9 386.9,50.5 394.9,50.3 C398.1,50.2 401.4,50.6 404.4,51.7 C444.1,65.2 548.2,47.5 548.2,47.5 L548.2,155.7 L548,155.7 Z"></path>
                        <path d="M548,183.5 C367.4,131 344.4,91 344.4,91 L548,97.4 L548,183.5 Z"></path>
                        <path d="M42.4,26.6 L42.4,33 C42.4,33 16.5,40.4 2.1,34.9 C2.1,35 2.4,31.8 42.4,26.6 Z"></path>
                        <path d="M189.8,120.2 C189.8,120.2 192.2,127.3 202,129.8 C202,129.8 201.4,137.8 176.5,139.5 C175.6,139.6 174.8,139.2 174.2,138.6 C172.9,137.2 170.9,134.2 170.1,129.7 C169.9,128.7 170.5,127.7 171.5,127.4 C175.8,125.8 187.3,121.7 189.8,120.2 Z"></path>
                    </g>
                    <g>
                        <path d="M250.2,111.5 L273.4,100 L254.6,38.7 C254.6,38.7 241.5,37.3 232.5,43.1 C223.5,48.9 220.1,90.8 220.1,90.8 L250.2,111.5 Z" id="Shape"></path>
                        <polygon id="Shape" points="470.8 26.7 489.6 28.5 485.6 58.9 466.5 57.7"></polygon>
                        <path d="M545.5,93.3 C545.5,93.3 548.4,91.1 555.5,98.9 C562.6,106.7 574.4,75.3 574.4,75.3 C574.4,75.3 554.4,66.5 549.1,64 C543.8,61.5 545.5,93.3 545.5,93.3 Z" id="Shape"></path>
                        <path d="M589.5,120.6 C589.5,120.6 596.9,125.5 598.7,129.2 C600.5,132.9 607.3,120.6 607.3,120.6 L598.4,105.8 L587.3,117.9 L589.5,120.6 Z" id="Shape"></path>
                        <polygon id="Shape" points="489.6 163.2 491.5 175.3 507.8 168.6 507.8 148.1"></polygon>
                        <polygon id="Shape" points="470.8 117.9 478.1 127.5 494.1 127.5 496.4 117.6 485 94.9"></polygon>
                        <path d="M407.2,74.3 C407.2,74.3 426,88.8 435.5,111.1 C435.5,111.1 445.9,114.2 461.9,102.5 C477.9,90.8 428.9,54.4 428.9,54.4 L407.2,74.3 Z" id="Shape"></path>
                        <polygon id="Shape" points="440 112.4 444.3 122.2 468.5 114.6 459 94.9"></polygon>
                        <polygon id="Shape" points="453.2 149.9 453.2 161.3 466.5 156.4 466.5 135.8"></polygon>
                        <path d="M344.7,149.9 L356,149.9 L365.8,161 C365.8,161 353.3,169.4 345.1,168.1 C336.9,166.8 344.7,149.9 344.7,149.9 Z" id="Shape"></path>
                        <path d="M423,90.4 C423,90.4 414.7,108.1 407.2,111.4 C399.6,114.7 376.8,157.5 376.8,157.5 L365.7,165.2 C365.7,165.2 348.9,150.7 350.3,138.5 L395,94.8 L399.6,74.8 L421.6,72.7 L423,90.4 Z" id="Shape"></path>
                        <path d="M448.3,156 C448.3,156 457.2,160.7 470.8,154.2 C470.8,154.2 461.4,169.3 459,186.3 C459,186.3 451.7,193 447.1,177.6 C442.5,162.2 448.3,156 448.3,156 Z" id="Shape"></path>
                        <path d="M458.1,157.6 C458.1,157.6 448.4,173.4 450.5,184.9" id="Shape" stroke="#000000" stroke-width="0.25"></path>
                        <path d="M465.1,107.9 C449.5,124.1 440,120.6 440,120.6 C440,120.6 447.1,128.6 448.3,149.9 L470.8,146.8 L470.3,100.1 L465.1,107.9 Z" id="Shape"></path>
                        <path d="M453.2,117.9 C453.2,117.9 458,127.9 459,148.4" id="Shape" stroke="#000000" stroke-width="0.25"></path>
                        <path d="M514.3,167.2 C514.3,167.2 505.7,177.1 501.7,206.3 C501.7,206.3 491.2,217 485.1,195.3 C485.1,195.3 481.1,178.5 487.6,170.2 C487.5,170.2 491.2,172.7 514.3,167.2 Z" id="Shape"></path>
                        <path d="M499,170.2 C499,170.2 492.1,172.5 491.3,207.3" id="Shape" stroke="#000000" stroke-width="0.25"></path>
                        <path d="M483.8,162.8 C483.8,162.8 494,165.5 514.3,156 C514.3,156 508.5,117.1 499.1,114.5 C499.1,114.5 485.4,127.4 474,128.3 C473.9,128.3 480.7,137.8 483.8,162.8 Z" id="Shape"></path>
                        <path d="M487.7,123.1 C487.7,123.1 496.7,140 500.3,161.3" id="Shape" stroke="#000000" stroke-width="0.25"></path>
                        <path d="M465,114.6 C470.3,126.5 496.4,100.2 496.4,100.2 L460,51.2 L421.6,72.9 C421.6,72.9 454.8,91.8 465,114.6 Z" id="Shape"></path>
                        <path d="M483.8,111 C483.8,111 464.9,81.3 453.2,69.8" id="Shape" stroke="#000000" stroke-width="0.25"></path>
                        <path d="M365.7,130.8 C365.7,130.8 368.3,135.9 373.2,139.7 C378.1,143.4 411.7,129.6 411.7,129.6 C411.7,129.6 408.6,130.4 405.5,116.3 C402.4,102.1 365.7,130.8 365.7,130.8 Z" id="Shape"></path>
                        <path d="M330,85.8 C330,85.8 348.5,51.9 396.9,60.2 C396.9,60.2 392.9,75.6 414.5,116 C414.5,116 385.2,113.7 359.3,135.8 C359.3,135.8 336.5,110.2 330,85.8 Z" id="Shape"></path>
                        <path d="M356,64 C356,64 375.9,116 384.3,120.6" id="Shape" stroke="#000000" stroke-width="0.25"></path>
                        <polygon id="Shape" points="408.8 184 414.4 195.3 437.2 192.7 435.5 180.3 428.8 170.2 411.7 167.2"></polygon>
                        <circle id="Oval" cx="388.7" cy="111.4" r="3.1"></circle>
                        <path d="M411.7,196.7 C411.7,196.7 424.3,191 438.5,177.5 C438.5,177.5 458.2,192.4 452.1,221.3 C445.9,250.3 421.6,239.2 421.6,239.2 C421.6,239.2 425.5,215.8 411.7,196.7 Z" id="Shape"></path>
                        <path d="M425.7,188.2 C425.7,188.2 442.1,210.1 432.5,241.3" id="Shape" stroke="#000000" stroke-width="0.25"></path>
                        <path d="M368.8,144 C368.8,144 384.5,124 417.2,125.8 C417.2,125.8 423.1,146.1 437.2,162.2 C437.2,162.2 419.3,181.3 403,186.2 C403,186.3 388.5,180.1 368.8,144 Z" id="Shape"></path>
                        <path d="M387.5,130.8 C387.5,130.8 401.9,147.6 419.6,177.5" id="Shape" stroke="#000000" stroke-width="0.25"></path>
                        <circle id="Oval" cx="419.5" cy="165.3" r="3.1"></circle>
                        <path d="M278.2,107.9 C248.6,78.8 250.5,28.8 250.5,28.8 L319.2,1.1 C319.2,1.1 450.5,-0.7 469,7.9 C469,7.9 476.7,48 460.4,69.2 L399.7,75 L278.2,107.9 Z" id="Shape"></path>
                        <polyline id="Shape" stroke="#000000" stroke-width="0.25" points="255.8 67.7 353.4 34.7 453.6 36.2 470.3 40.2"></polyline>
                        <path d="M332.4,93.2 C332.4,93.2 315.5,96.3 313.3,70.1 C311.1,43.9 353.4,34.7 353.4,34.7 C353.4,34.7 395,25 406.1,59 C406.1,59 411.6,75.6 398.1,75.5 C384.5,75.3 332.4,93.2 332.4,93.2 Z" id="Shape"></path>
                        <circle id="Oval" cx="414.4" cy="48.9" r="5.5"></circle>
                        <circle id="Oval" cx="281" cy="75" r="5.5"></circle>
                        <path d="M347,145.4 C347,145.4 343,145.6 345.5,173.3 C345.5,173.3 318.7,180.6 311.3,177.6 C311.2,177.6 311.8,148.4 347,145.4 Z" id="Shape"></path>
                        <path d="M344.7,161.3 C344.7,161.3 330.5,158.9 313.3,168.1" id="Shape" stroke="#000000" stroke-width="0.25"></path>
                        <path d="M0,250.7 C0,250.7 133.1,194 254.5,118.2 C254.5,118.2 233.5,92.6 232,34.7 C232,34.7 40.3,73.2 0,92.9 L0,250.7 Z" id="Shape"></path>
                        <path d="M0,214 C0,214 66.6,180.4 89,162.9 C89,162.9 91.5,149.7 86.8,141.3 L0,186.9 L0,214 Z" id="Shape"></path>
                        <path d="M86.9,141.3 C86.9,141.3 81.4,123.1 73,119.7 L0,149.9 L0,186.9 L86.9,141.3 Z" id="Shape"></path>
                        <path d="M85.1,136.4 C85.1,136.4 171.5,91.4 237.8,79.3" id="Shape" stroke="#000000" stroke-width="0.25"></path>
                        <circle id="Oval" cx="110.3" cy="112.4" r="5.5"></circle>
                        <circle id="Oval" cx="94" cy="120.6" r="5.5"></circle>
                        <path d="M607.6,112.4 C607.6,112.4 611,126.2 626.7,149.9 C626.7,149.9 626.7,158.2 611.3,152.4 C595.9,146.5 591.6,129.6 591.6,129.6 C591.6,129.6 600.8,129.4 607.6,112.4 Z" id="Shape"></path>
                        <path d="M601.6,123.1 C601.6,123.1 611.6,150.5 621.2,154.2" id="Shape" stroke="#000000" stroke-width="0.25"></path>
                        <path d="M473.9,67.7 C483.5,44.7 479.4,20.8 479.4,20.8 C479.4,20.8 544.7,39.1 558.6,58.9 C558.6,58.9 558.6,86.4 540.1,97.3 L473.9,67.7 Z" id="Shape"></path>
                        <path d="M479.6,45 C479.6,45 525.2,56.5 555.4,76.8" id="Shape" stroke="#000000" stroke-width="0.25"></path>
                        <path d="M564.8,67.7 C564.8,67.7 567.6,84.9 552.5,101.8 C552.5,101.8 574.1,111 585.2,122.1 C585.2,122.1 592,122.7 603.7,105.5 C603.6,105.5 582.7,69.3 564.8,67.7 Z" id="Shape"></path>
                        <path d="M563.1,83.3 C563.1,83.3 591.4,104.2 596.6,114.6" id="Shape" stroke="#000000" stroke-width="0.25"></path>
                        <circle id="Oval" cx="489.4" cy="38.7" r="4.1"></circle>
                    </g>
                </g>
                <g>
                    <g transform="translate(652.000000, 110.000000)" fill-rule="nonzero" id="Shape">
                        <path d="M202,145.8 C202,145.8 247.3,137.5 254.7,117 C254.7,117 321,121.5 344.4,91.7 C367.8,61.9 228.2,109 228.2,109 L217,135.3 L202,145.8 Z" fill="#F2A591"></path>
                        <path d="M344.4,91.7 C344.4,91.7 343.1,115.4 320.7,118.6 C320.7,118.6 294.8,128.8 256.7,125 C218.6,121.2 267.9,101 267.9,101 L344.4,91.7 Z" fill="#F1A488"></path>
                        <path d="M105.2,205.6 C105.2,205.6 128.5,202.6 144.3,141.9 C144.3,141.9 156.7,135.5 196.9,101.8 L178.3,65.6 L112.9,153.4 L105.2,205.6 Z" fill="#F2A591"></path>
                        <path d="M133.3,175.5 C133.3,175.5 136.6,187.7 143.3,229 C143.3,229 184,233.2 167.5,175.3 C165.7,169.1 167.3,162.5 171.7,157.9 C179.8,149.3 193.9,135.5 210,125.8 L218.1,102.6 L184.2,58 L112.9,149.9 L133.3,175.5 Z" fill="#F2A591"></path>
                        <path d="M177,53 C177,53 180.3,80.3 209.4,98.4 C232.9,113 273.6,160.3 373.7,104.4 C473.8,48.5 186.8,42 186.8,42 L177,53 Z" fill="#F7A896"></path>
                        <path d="M143.3,229 C143.3,229 172.1,215.6 155.1,167.5 L180.2,142.5 L170.9,128.7 L147.4,142.5 L133.8,180 L143.3,229 Z" fill="#E9C7AB"></path>
                        <path d="M197.6,139.1 L186.3,159.2 C180.8,169 182,181.2 189.4,189.7 C194.3,195.3 199.5,203 203.6,213 C204.4,215 206.9,215.8 208.7,214.6 C212.5,211.9 217.2,204.2 212.9,182.9 C211.8,177.4 213.2,171.7 216.9,167.4 C226.2,156.5 242.9,135.3 242.2,124.7 C241.2,110 197.6,139.1 197.6,139.1 Z" fill="#F1A488"></path>
                        <path d="M3.5,51.7 C3.5,51.7 11.7,63.4 20.6,63.1 C29.6,62.8 46.5,65.3 68.9,52.2 C68.9,52.2 131,55.7 144.5,47.1 C144.5,47.1 166.6,56.4 188.7,55.1 C188.7,55.1 213.4,60.2 232.9,73.3 L199.6,21.7 L22.2,44.8 L3.5,51.7 Z" fill="#F2A591"></path>
                        <path d="M177,55 C177,55 155.3,94.2 117,115.3 C112.6,117.7 109.8,122.2 109.4,127.1 C108.3,140.4 103.6,168.7 84.8,202.5 C84.8,202.5 82.2,213.1 105.3,205.7 C105.3,205.7 122.5,197.4 131.2,160.9 C131.2,160.9 136.4,140.1 142.8,133.7 C142.8,133.7 183.3,116 202.2,93.3 L177,55 Z" fill="#E9C7AB"></path>
                        <path d="M95.2,180.4 C95.2,180.4 100.8,182.8 104.1,183 C104.1,183 103.4,198.1 88.8,206.3 C88.8,206.3 83,205.2 85,201.5 C87,197.8 95.2,180.4 95.2,180.4 Z" fill="#F2F2F2"></path>
                        <path d="M548,156.3 C424.7,150.2 344.4,91.6 344.4,91.6 C310.5,115.3 248,116.3 248,116.3 C246.7,125.3 200.9,152.8 184.3,147.4 C171,143 169.7,133.6 169.8,129.9 C169.8,129.1 170.4,128.3 171.2,128.1 C223.4,113 241.7,67.3 241.7,67.3 L233.1,73.4 C203.8,49.4 182,50 182,50 C156.7,46.8 146.8,38.2 146.8,38.2 C71.6,52.3 65.5,42 65.5,42 C52.1,52.2 5.3,58.7 2.1,50 C-1.1,41.4 2.1,35.6 2.1,35.6 C10.7,30.8 42.4,27.3 42.4,27.3 C54.9,24.1 63.2,19.9 63.2,19.9 C83.7,18 130.4,3.2 134.9,1.6 C138,0.5 141.8,0.9 143.8,1.3 C145.2,1.6 146.6,1.8 148,2 C216.9,12.2 251.2,26.6 251.2,26.6 C297.6,22.1 323.9,35.6 323.9,35.6 C366.9,49.5 386.7,51.1 394.7,50.9 C397.9,50.8 401.2,51.2 404.2,52.3 C443.9,65.8 548,48.1 548,48.1 L548,156.3 Z" fill="#E9C7AB"></path>
                        <path d="M548,184.2 C367.4,131.7 344.4,91.7 344.4,91.7 L548,98.1 L548,184.2 Z" fill="#F2A591"></path>
                        <path d="M42.4,27.3 L42.4,33.7 C42.4,33.7 16.5,41.1 2.1,35.6 C2.1,35.6 2.4,32.4 42.4,27.3 Z" fill="#F2F2F2"></path>
                        <path d="M189.8,120.8 C189.8,120.8 192.2,127.9 202,130.4 C202,130.4 201.4,138.4 176.5,140.1 C175.6,140.2 174.8,139.8 174.2,139.2 C172.9,137.8 170.9,134.8 170.1,130.3 C169.9,129.3 170.5,128.3 171.5,128 C175.8,126.4 187.3,122.4 189.8,120.8 Z" fill="#F2F2F2"></path>
                    </g>
                    <g>
                        <path d="M250.2,111.1 L273.4,99.6 L254.6,38.3 C254.6,38.3 241.5,36.9 232.5,42.7 C223.5,48.5 220.1,90.4 220.1,90.4 L250.2,111.1 Z" id="Shape" fill="#181A1E" fill-rule="nonzero"></path>
                        <polygon id="Shape" fill="#181A1E" fill-rule="nonzero" points="470.8 26.3 489.6 28.2 485.6 58.6 466.5 57.3"></polygon>
                        <path d="M545.5,93 C545.5,93 548.4,90.8 555.5,98.6 C562.6,106.4 574.4,75 574.4,75 C574.4,75 554.4,66.2 549.1,63.7 C543.8,61.1 545.5,93 545.5,93 Z" id="Shape" fill="#181A1E" fill-rule="nonzero"></path>
                        <path d="M589.5,120.3 C589.5,120.3 596.9,125.2 598.7,128.9 C600.5,132.6 607.3,120.3 607.3,120.3 L598.4,105.5 L587.3,117.6 L589.5,120.3 Z" id="Shape" fill="#181A1E" fill-rule="nonzero"></path>
                        <polygon id="Shape" fill="#181A1E" fill-rule="nonzero" points="489.6 162.8 491.5 174.9 507.8 168.3 507.8 147.7"></polygon>
                        <polygon id="Shape" fill="#181A1E" fill-rule="nonzero" points="470.8 117.5 478.1 127.2 494.1 127.2 496.4 117.3 485 94.6"></polygon>
                        <path d="M407.2,73.9 C407.2,73.9 426,88.4 435.5,110.7 C435.5,110.7 445.9,113.8 461.9,102.1 C477.9,90.4 428.9,54 428.9,54 L407.2,73.9 Z" id="Shape" fill="#F2F2F2" fill-rule="nonzero"></path>
                        <polygon id="Shape" fill="#181A1E" fill-rule="nonzero" points="440 112 444.3 121.8 468.5 114.2 459 94.6"></polygon>
                        <polygon id="Shape" fill="#181A1E" fill-rule="nonzero" points="453.2 149.6 453.2 160.9 466.5 156 466.5 135.5"></polygon>
                        <path d="M344.7,149.6 L356,149.6 L365.8,160.7 C365.8,160.7 353.3,169.1 345.1,167.8 C336.9,166.5 344.7,149.6 344.7,149.6 Z" id="Shape" fill="#181A1E" fill-rule="nonzero"></path>
                        <path d="M423,90.1 C423,90.1 414.7,107.8 407.2,111.1 C399.6,114.4 376.8,157.2 376.8,157.2 L365.7,164.9 C365.7,164.9 348.9,150.4 350.3,138.2 L395,94.5 L399.6,74.5 L421.6,72.4 L423,90.1 Z" id="Shape" fill="#F2F2F2" fill-rule="nonzero"></path>
                        <path d="M448.3,155.7 C448.3,155.7 457.2,160.4 470.8,153.9 C470.8,153.9 461.4,169 459,186 C459,186 451.7,192.7 447.1,177.3 C442.5,161.9 448.3,155.7 448.3,155.7 Z" id="Shape" fill="#FFFFFF" fill-rule="nonzero"></path>
                        <path d="M458.1,157.2 C458.1,157.2 448.4,173 450.5,184.5" id="Shape" stroke="#000000" stroke-width="0.25"></path>
                        <path d="M465.1,107.5 C449.5,123.7 440,120.2 440,120.2 C440,120.2 447.1,128.2 448.3,149.5 L470.8,146.4 L470.3,99.7 L465.1,107.5 Z" id="Shape" fill="#F2F2F2" fill-rule="nonzero"></path>
                        <path d="M453.2,117.5 C453.2,117.5 458,127.5 459,148" id="Shape" stroke="#000000" stroke-width="0.25"></path>
                        <path d="M514.3,166.8 C514.3,166.8 505.7,176.7 501.7,205.9 C501.7,205.9 491.2,216.6 485.1,194.9 C485.1,194.9 481.1,178.1 487.6,169.8 C487.5,169.9 491.2,172.4 514.3,166.8 Z" id="Shape" fill="#FFFFFF" fill-rule="nonzero"></path>
                        <path d="M499,169.9 C499,169.9 492.1,172.2 491.3,207" id="Shape" stroke="#000000" stroke-width="0.25"></path>
                        <path d="M483.8,162.4 C483.8,162.4 494,165.1 514.3,155.6 C514.3,155.6 508.5,116.7 499.1,114.1 C499.1,114.1 485.4,127 474,127.9 C473.9,128 480.7,137.4 483.8,162.4 Z" id="Shape" fill="#FFFFFF" fill-rule="nonzero"></path>
                        <path d="M487.7,122.7 C487.7,122.7 496.7,139.6 500.3,160.9" id="Shape" stroke="#000000" stroke-width="0.25"></path>
                        <path d="M465,114.2 C470.3,126.1 496.4,99.8 496.4,99.8 L460,50.8 L421.6,72.5 C421.6,72.5 454.8,91.5 465,114.2 Z" id="Shape" fill="#FFFFFF" fill-rule="nonzero"></path>
                        <path d="M483.8,110.7 C483.8,110.7 464.9,81 453.2,69.5" id="Shape" stroke="#000000" stroke-width="0.25"></path>
                        <path d="M365.7,130.5 C365.7,130.5 368.3,135.6 373.2,139.4 C378.1,143.1 411.7,129.3 411.7,129.3 C411.7,129.3 408.6,130.1 405.5,116 C402.4,101.8 365.7,130.5 365.7,130.5 Z" id="Shape" fill="#181A1E" fill-rule="nonzero"></path>
                        <path d="M330,85.5 C330,85.5 348.5,51.6 396.9,59.9 C396.9,59.9 392.9,75.3 414.5,115.7 C414.5,115.7 385.2,113.4 359.3,135.5 C359.3,135.5 336.5,109.8 330,85.5 Z" id="Shape" fill="#FFFFFF" fill-rule="nonzero"></path>
                        <path d="M356,63.7 C356,63.7 375.9,115.7 384.3,120.3" id="Shape" stroke="#000000" stroke-width="0.25"></path>
                        <polygon id="Shape" fill="#181A1E" fill-rule="nonzero" points="408.8 183.6 414.4 195 437.2 192.4 435.5 180 428.8 169.9 411.7 166.8"></polygon>
                        <circle id="Oval" fill="#D2D6D8" fill-rule="nonzero" cx="388.7" cy="111.1" r="3.1"></circle>
                        <path d="M411.7,196.4 C411.7,196.4 424.3,190.7 438.5,177.2 C438.5,177.2 458.2,192.1 452.1,221 C446,249.9 421.6,238.9 421.6,238.9 C421.6,238.9 425.5,215.5 411.7,196.4 Z" id="Shape" fill="#FFFFFF" fill-rule="nonzero"></path>
                        <path d="M425.7,187.9 C425.7,187.9 442.1,209.8 432.5,241" id="Shape" stroke="#000000" stroke-width="0.25"></path>
                        <path d="M368.8,143.7 C368.8,143.7 384.5,123.7 417.2,125.5 C417.2,125.5 423.1,145.8 437.2,161.9 C437.2,161.9 419.3,181 403,185.9 C403,185.9 388.5,179.8 368.8,143.7 Z" id="Shape" fill="#FFFFFF" fill-rule="nonzero"></path>
                        <path d="M387.5,130.5 C387.5,130.5 401.9,147.3 419.6,177.2" id="Shape" stroke="#000000" stroke-width="0.25"></path>
                        <circle id="Oval" fill="#D2D6D8" fill-rule="nonzero" cx="419.5" cy="165" r="3.1"></circle>
                        <path d="M278.2,107.5 C248.6,78.4 250.5,28.4 250.5,28.4 L319.2,0.7 C319.2,0.7 450.5,-1.1 469,7.5 C469,7.5 476.7,47.6 460.4,68.8 L399.7,74.6 L278.2,107.5 Z" id="Shape" fill="#FFFFFF" fill-rule="nonzero"></path>
                        <polyline id="Shape" stroke="#000000" stroke-width="0.25" points="255.8 67.4 353.4 34.3 453.6 35.9 470.3 39.9"></polyline>
                        <path d="M332.4,92.9 C332.4,92.9 315.5,96 313.3,69.8 C311.1,43.6 353.4,34.4 353.4,34.4 C353.4,34.4 395,24.7 406.1,58.7 C406.1,58.7 411.6,75.3 398.1,75.2 C384.5,75 332.4,92.9 332.4,92.9 Z" id="Shape" fill="#181A1E" fill-rule="nonzero"></path>
                        <circle id="Oval" fill="#D2D6D8" fill-rule="nonzero" cx="414.4" cy="48.5" r="5.5"></circle>
                        <circle id="Oval" fill="#D2D6D8" fill-rule="nonzero" cx="281" cy="74.6" r="5.5"></circle>
                        <path d="M347,145.1 C347,145.1 343,145.3 345.5,173 C345.5,173 318.7,180.3 311.3,177.3 C311.2,177.2 311.8,148 347,145.1 Z" id="Shape" fill="#FFFFFF" fill-rule="nonzero"></path>
                        <path d="M344.7,160.9 C344.7,160.9 330.5,158.5 313.3,167.7" id="Shape" stroke="#000000" stroke-width="0.25"></path>
                        <path d="M0,250.3 C0,250.3 133.1,193.6 254.5,117.8 C254.5,117.8 233.5,92.2 232,34.3 C232,34.3 40.3,72.8 0,92.5 L0,250.3 Z" id="Shape" fill="#FFFFFF" fill-rule="nonzero"></path>
                        <path d="M0,213.6 C0,213.6 66.6,180 89,162.5 C89,162.5 91.5,149.3 86.8,140.9 L0,186.5 L0,213.6 Z" id="Shape" fill="#333333" fill-rule="nonzero"></path>
                        <path d="M86.9,140.9 C86.9,140.9 81.4,122.7 73,119.3 L0,149.6 L0,186.6 L86.9,140.9 Z" id="Shape" fill="#000000" fill-rule="nonzero"></path>
                        <path d="M85.1,136.1 C85.1,136.1 171.5,91.1 237.8,79" id="Shape" stroke="#000000" stroke-width="0.25"></path>
                        <circle id="Oval" fill="#D2D6D8" fill-rule="nonzero" cx="110.3" cy="112" r="5.5"></circle>
                        <circle id="Oval" fill="#D2D6D8" fill-rule="nonzero" cx="94" cy="120.3" r="5.5"></circle>
                        <path d="M607.6,112 C607.6,112 611,125.8 626.7,149.5 C626.7,149.5 626.7,157.8 611.3,152 C595.9,146.1 591.6,129.2 591.6,129.2 C591.6,129.2 600.8,129 607.6,112 Z" id="Shape" fill="#FFFFFF" fill-rule="nonzero"></path>
                        <path d="M601.6,122.7 C601.6,122.7 611.6,150.1 621.2,153.8" id="Shape" stroke="#000000" stroke-width="0.25"></path>
                        <path d="M473.9,67.4 C483.5,44.4 479.4,20.5 479.4,20.5 C479.4,20.5 544.7,38.8 558.6,58.6 C558.6,58.6 558.6,86.1 540.1,97 L473.9,67.4 Z" id="Shape" fill="#FFFFFF" fill-rule="nonzero"></path>
                        <path d="M479.6,44.7 C479.6,44.7 525.2,56.2 555.4,76.5" id="Shape" stroke="#000000" stroke-width="0.25"></path>
                        <path d="M564.8,67.4 C564.8,67.4 567.6,84.6 552.5,101.5 C552.5,101.5 574.1,110.7 585.2,121.8 C585.2,121.8 592,122.4 603.7,105.2 C603.6,105.2 582.7,69 564.8,67.4 Z" id="Shape" fill="#FFFFFF" fill-rule="nonzero"></path>
                        <path d="M563.1,83 C563.1,83 591.4,103.9 596.6,114.3" id="Shape" stroke="#000000" stroke-width="0.25"></path>
                        <circle id="Oval" fill="#D2D6D8" fill-rule="nonzero" cx="489.4" cy="38.4" r="4.1"></circle>
                    </g>
                </g>
            </g>
        </g>
    </g>
</svg>