<?xml version="1.0" encoding="iso-8859-1"?>
<!-- Generator: Adobe Illustrator 19.0.0, SVG Export Plug-In . SVG Version: 6.00 Build 0)  -->
<svg version="1.1" id="Capa_1" xmlns="http://www.w3.org/2000/svg" xmlns:xlink="http://www.w3.org/1999/xlink" x="0px" y="0px"
	 viewBox="0 0 511.999 511.999" style="enable-background:new 0 0 511.999 511.999;" xml:space="preserve">
<g>
	<g>
		<path d="M302.19,91.997c7.124-9.596,11.347-21.469,11.347-34.311C313.537,25.878,287.659,0,255.851,0
			s-57.686,25.878-57.686,57.686c0,12.872,4.241,24.772,11.395,34.38c-23.3,10.18-40.886,31.045-46.549,56.371h185.88
			C343.216,123.056,325.565,102.152,302.19,91.997z"/>
	</g>
</g>
<g>
	<g>
		<path d="M115.684,178.464v62.699h55.052v126.253c9.507-38.154,44.06-66.51,85.115-66.51c40.936,0,75.41,28.191,85.034,66.177
			V241.163h55.534v-62.699H115.684z"/>
	</g>
</g>
<g>
	<g>
		<path d="M461.963,422.93c7.124-9.596,11.346-21.469,11.346-34.311c0-31.808-25.877-57.686-57.686-57.686
			s-57.686,25.878-57.686,57.686c0,12.872,4.241,24.772,11.395,34.38c-4.056,1.772-7.933,3.87-11.61,6.258
			c-8.536,5.541-15.96,12.646-21.87,20.912c-5.705-7.984-12.904-14.986-21.377-20.581l-3.618-2.39v0.146
			c-2.789-1.636-5.68-3.116-8.669-4.414c2.674-3.602,4.938-7.524,6.725-11.699l0.027-0.064c3.05-7.144,4.595-14.731,4.595-22.549
			c0-31.808-25.878-57.686-57.686-57.686c-31.808,0-57.686,25.878-57.686,57.686c0,7.845,1.558,15.458,4.631,22.628l0.033,0.078
			c1.791,4.166,4.056,8.081,6.731,11.674c-3.035,1.326-5.971,2.833-8.799,4.507v-0.133l-3.467,2.3
			c-8.39,5.564-15.526,12.513-21.194,20.429c-5.917-8.259-13.347-15.357-21.888-20.888c-3.703-2.399-7.609-4.508-11.695-6.284
			c7.124-9.596,11.346-21.469,11.346-34.311c0-31.808-25.878-57.686-57.686-57.686c-31.808,0-57.686,25.878-57.686,57.686
			c0,12.872,4.241,24.772,11.395,34.38c-28.52,12.46-48.509,40.927-48.509,73.987v15.013h509.246v-15.012h0.003
			C510.624,463.867,490.564,435.356,461.963,422.93z"/>
	</g>
</g>
<g>
</g>
<g>
</g>
<g>
</g>
<g>
</g>
<g>
</g>
<g>
</g>
<g>
</g>
<g>
</g>
<g>
</g>
<g>
</g>
<g>
</g>
<g>
</g>
<g>
</g>
<g>
</g>
<g>
</g>
</svg>
