<?xml version="1.0" encoding="UTF-8"?>
<svg width="477px" height="474px" viewBox="0 0 477 474" version="1.1" xmlns="http://www.w3.org/2000/svg" xmlns:xlink="http://www.w3.org/1999/xlink">
    <!-- Generator: Sketch 51.1 (57501) - http://www.bohemiancoding.com/sketch -->
    <title>thegap</title>
    <desc>Created with Sketch.</desc>
    <defs></defs>
    <g id="Page-1" stroke="none" stroke-width="1" fill="none" fill-rule="evenodd">
        <rect id="Rectangle" stroke="#000000" stroke-width="4" fill="#4A90E2" fill-rule="nonzero" x="37" y="5" width="435" height="435" rx="3"></rect>
        <text id="AI-&amp;-Robotics-Techno" font-family="ProximaNova-BoldIt, Proxima Nova" font-size="24" font-style="italic" font-weight="bold" fill="#000000">
            <tspan x="165.28" y="83">AI &amp; Robotics</tspan>
            <tspan x="165.256" y="112">Technologies</tspan>
        </text>
        <text id="Policy" font-family="ProximaNova-BoldIt, Proxima Nova" font-size="24" font-style="italic" font-weight="bold" fill="#000000">
            <tspan x="302.408" y="416">Policy</tspan>
        </text>
        <text id="Time" font-family="ProximaNova-Bold, Proxima Nova" font-size="24" font-weight="bold" fill="#000000">
            <tspan x="334.12" y="464">Time</tspan>
        </text>
        <path id="Line-3" d="M17.5,4.5 L5.5,28.5 L29.5,28.5 L17.5,4.5 Z M19.5,80.5 L19.5,26.5 L19.5,24.5 L15.5,24.5 L15.5,26.5 L15.5,80.5 L15.5,82.5 L19.5,82.5 L19.5,80.5 Z" fill="#000000" fill-rule="nonzero"></path>
        <path id="Line-3" d="M472,458 L448,446 L448,470 L472,458 Z M396,460 L450,460 L452,460 L452,456 L450,456 L396,456 L394,456 L394,460 L396,460 Z" fill="#000000" fill-rule="nonzero"></path>
        <text id="Advancement" transform="translate(14.500000, 164.000000) rotate(-90.000000) translate(-14.500000, -164.000000) " font-family="ProximaNova-Bold, Proxima Nova" font-size="24" font-weight="bold" fill="#000000">
            <tspan x="-60.848" y="173.5">Advancement</tspan>
        </text>
        <path id="Line" d="M310.5,117.5 L254.940492,141.125011 L296.064304,176.122612 L310.5,117.5 Z M45.8077603,436.240519 L282.782024,157.784726 L286.022543,153.976966 L278.407022,147.495929 L275.166503,151.303689 L38.1922397,429.759481 L34.951721,433.567242 L42.5672416,440.048279 L45.8077603,436.240519 Z" fill="#417505" fill-rule="nonzero"></path>
        <path id="Line-2" d="M345,364 L297.135973,352.640646 L307.194101,395.475609 L345,364 Z M41.4143752,439.394088 L307.113835,377.004888 L311.007922,376.090512 L309.179172,368.302337 L305.285084,369.216713 L39.5856248,431.605912 L35.6915372,432.520288 L37.5202877,440.308463 L41.4143752,439.394088 Z" fill="#F5A623" fill-rule="nonzero"></path>
        <rect id="Rectangle" stroke="#000000" stroke-width="4" fill-rule="nonzero" x="37" y="5" width="435" height="435" rx="3"></rect>
        <path d="M296,332.254608 L301.706687,332.254608 C304.887463,332.254608 307.600478,326.34447 307.600478,317.479263 L307.600478,281.230415 C307.600478,272.956221 308.816657,266.258065 311.903881,263.5 C308.816657,260.741935 307.600478,254.043779 307.600478,245.769585 L307.600478,209.323733 C307.600478,200.458525 304.887463,194.745392 301.706687,194.745392 L296,194.745392 L296,178 L301.706687,178 C309.190866,178 316.207284,190.017281 316.207284,209.520737 L316.207284,243.208525 C316.207284,250.497696 317.797672,256.407834 321.072,256.407834 L321.072,270.592166 C317.797672,270.592166 316.207284,276.502304 316.207284,283.791475 L316.207284,317.676267 C316.207284,337.179724 309.190866,349 301.706687,349 L296,349 L296,332.254608 Z" id="}" fill="#D0021B"></path>
    </g>
</svg>